<?xml version="1.0" encoding="UTF-8"?>
<svg id="a" xmlns="http://www.w3.org/2000/svg" viewBox="0 0 40.03 57.06">
  <defs>
    <style>
      .cls-1 {
        fill: #fff;
      }

      .cls-2 {
        fill: #ff735d;
      }

      .cls-3 {
        fill: #fafafa;
      }

      .cls-4 {
        fill: #e1e1e1;
      }

      .cls-5 {
        opacity: .3;
      }

      .cls-5, .cls-6 {
        isolation: isolate;
      }

      .cls-7 {
        fill: #375a64;
      }

      .cls-6 {
        opacity: .1;
      }

      .cls-8 {
        fill: #ececec;
      }

      .cls-9 {
        fill: #1a2e35;
      }
    </style>
  </defs>
  <g>
    <g>
      <path class="cls-7" d="m18.99,55.22c-.81-1.83-1.56-3.76-.85-5.57.72-1.88,2.73-2.87,4.19-3.45.75-.3,1.53-.58,2.27-.83,1.21-.43,2.45-.85,3.6-1.42,2.11-1.03,3.62-2.39,4.35-3.94.86-1.84.5-4.08-.84-5.21-1.26-1.07-3.02-1.14-4.89-1.22-1.9-.09-3.88-.17-5.36-1.37-1.22-.99-1.91-2.64-1.89-4.53.02-1.63.53-3.18,1.03-4.69l.8.25c-.47,1.44-.96,2.94-.98,4.44-.02,1.61.57,3.06,1.58,3.89,1.27,1.03,3.01,1.1,4.86,1.19,1.93.09,3.93.17,5.4,1.42,1.86,1.57,1.94,4.29,1.06,6.16-.82,1.74-2.41,3.2-4.74,4.34-1.2.58-2.47,1.03-3.68,1.45-.74.26-1.51.52-2.23.82-1.31.52-3.12,1.4-3.73,2.98-.59,1.53.1,3.29.84,4.95l-.77.33h0Z"/>
      <path class="cls-9" d="m20.57,26.23s-.19-.02-.44-.05c-.23-.03-.43-.03-.44-.05,0-.02.2-.04.44-.01.25.03.43.11.43.12h.01Z"/>
      <path class="cls-9" d="m20.38,27.31s-.18-.03-.41-.04-.41.01-.41,0c0-.02.18-.07.42-.06s.41.1.41.12h-.01Z"/>
      <path class="cls-9" d="m20.44,28.52s-.19.03-.42.07c-.22.04-.41.1-.42.07,0-.02.17-.1.4-.14.23-.04.43-.02.43,0h.01Z"/>
      <path class="cls-9" d="m20.76,30s-.17.05-.37.14c-.2.07-.35.17-.36.16s.13-.14.33-.22c.21-.09.4-.09.4-.07h.01Z"/>
      <path class="cls-9" d="m20.86,31.67s.03-.19.2-.37.35-.25.36-.22c0,.02-.16.11-.31.28-.16.16-.23.33-.26.32Z"/>
      <path class="cls-9" d="m22.27,32.74s-.04-.19.04-.41c.09-.21.25-.34.26-.32.01.01-.11.15-.19.35-.09.2-.1.38-.12.38h.01Z"/>
      <path class="cls-9" d="m24.01,33.28s-.06-.16-.03-.37c.03-.2.13-.35.15-.34.02,0-.04.16-.07.35-.03.19-.02.35-.03.36h-.01Z"/>
      <path class="cls-9" d="m25.75,33.51s-.1-.16-.1-.38.06-.4.09-.38c.02,0-.01.17,0,.38,0,.21.04.38.02.38h-.01Z"/>
      <path class="cls-9" d="m27.54,33.58s-.1-.16-.09-.37c0-.21.11-.37.13-.36.02,0-.04.16-.05.36-.01.2.03.36.01.37Z"/>
      <path class="cls-9" d="m29.31,32.99s-.09.16-.16.35-.1.36-.12.36-.03-.18.04-.4c.07-.21.21-.34.22-.33h.01Z"/>
      <path class="cls-9" d="m31.41,33.7s-.12.12-.23.28c-.12.15-.18.3-.2.3s.02-.17.14-.34c.13-.17.28-.25.29-.23h.01Z"/>
      <path class="cls-9" d="m33.12,35.28s-.16.06-.35.15c-.19.09-.33.17-.35.16-.01-.01.12-.14.32-.22.2-.09.38-.11.38-.09Z"/>
      <path class="cls-9" d="m33.82,37.81s-.17-.07-.38-.11-.4,0-.41-.02c0-.02.18-.09.42-.05.23.03.4.16.37.17h0Z"/>
      <path class="cls-9" d="m33.36,40.26s-.14-.14-.32-.27c-.18-.14-.36-.2-.35-.22,0-.02.2.02.4.17.19.14.29.32.28.32Z"/>
      <path class="cls-9" d="m31.89,42.38s-.11-.15-.25-.33c-.14-.18-.28-.3-.27-.31,0-.01.18.09.33.27.15.18.21.36.19.37h-.01Z"/>
      <path class="cls-9" d="m30.14,43.81s-.09-.16-.21-.33c-.12-.18-.25-.3-.23-.31.01-.01.17.09.3.28.13.18.17.36.15.37h0Z"/>
      <path class="cls-9" d="m27.95,44.99s-.06-.17-.16-.36c-.11-.19-.23-.32-.21-.34.01-.01.17.1.28.31.11.2.12.4.1.4Z"/>
      <path class="cls-9" d="m25.78,45.88s-.04-.19-.15-.4c-.11-.2-.27-.32-.25-.34,0-.02.19.09.31.31s.11.43.09.43Z"/>
      <path class="cls-9" d="m23.37,46.65s-.04-.17-.14-.35c-.1-.18-.22-.3-.21-.31,0-.01.17.09.28.28.11.19.1.38.07.38Z"/>
      <path class="cls-9" d="m21.4,47.46s-.05-.16-.16-.33-.23-.28-.22-.29c0-.02.17.07.28.26.12.18.12.36.1.36h.01Z"/>
      <path class="cls-9" d="m19.82,48.68s-.11-.15-.29-.28-.36-.15-.36-.17.2-.02.41.12c.2.14.27.33.25.33Z"/>
      <path class="cls-9" d="m18.74,50.59s-.17-.05-.38-.09c-.21-.03-.38-.01-.4-.03,0-.02.18-.07.41-.03.22.03.38.14.37.15Z"/>
    </g>
    <g>
      <path class="cls-9" d="m7.38,56.2l2.05-4.12h22.63l2.7,4.12c-9.34,1.06-18.59,1.07-27.38,0"/>
      <ellipse class="cls-7" cx="20.8" cy="52.03" rx="11.28" ry=".68"/>
      <ellipse class="cls-3" cx="21" cy="52.03" rx="8.98" ry=".48"/>
      <path class="cls-7" d="m21.43,57.06s-.03-.98-.03-2.19.01-2.19.03-2.19.03.98.03,2.19-.01,2.19-.03,2.19Z"/>
      <path class="cls-7" d="m32.93,53.69s-.03,0-.09.01c-.06,0-.15.02-.25.03-.22.02-.54.05-.94.1-.8.07-1.93.18-3.22.3h.02c-.21.32-.44.68-.67,1.05h-.02c-.09.01-.17.01-.27.01-1.68.03-3.18.05-4.28.07-.54,0-.98.01-1.3.01h-.48.13c.09,0,.2,0,.35-.01.31,0,.76-.02,1.3-.03,1.1-.02,2.62-.06,4.28-.1h.27-.03c.23-.35.46-.7.67-1.05h.02c1.29-.12,2.41-.21,3.22-.29.4-.03.72-.05.94-.07.11,0,.19-.01.26-.02h.09Z"/>
      <path class="cls-7" d="m30.88,53.88s-.09-.33-.15-.76c-.06-.42-.11-.76-.09-.76s.09.33.15.76c.06.42.11.76.09.76Z"/>
      <path class="cls-7" d="m12.75,56.69s-.01-.03-.03-.09c-.02-.06-.05-.15-.09-.25-.07-.22-.17-.52-.29-.89l.02.02c-.45-.04-.98-.1-1.55-.15-.79-.07-1.51-.15-2.02-.2-.25-.03-.46-.05-.61-.07-.14-.02-.22-.03-.22-.03h.22c.16.01.36.03.61.05.51.04,1.23.11,2.02.19.57.05,1.1.11,1.55.16h.02v.02c.11.36.2.66.27.9.03.1.05.18.07.25.01.05.02.09.02.09Z"/>
      <path class="cls-7" d="m21.43,53.69h-1.52c-.96,0-2.3,0-3.81.01h.01c-.33.12-.68.25-1.04.37-.19.07-.38.14-.57.2h0c-1.63-.19-3.09-.37-4.13-.5-.51-.06-.94-.12-1.23-.16-.14-.02-.26-.03-.33-.04-.03,0-.06,0-.09-.01h-.03.12c.09,0,.19.02.33.03.3.03.72.07,1.24.14,1.05.12,2.5.29,4.13.48h-.01c.18-.06.37-.13.57-.2.35-.13.7-.26,1.04-.37h0c1.52,0,2.85,0,3.81.01h1.52v.04Z"/>
    </g>
  </g>
  <g>
    <g>
      <polyline class="cls-4" points="19.33 17.34 19.33 20.32 22.54 20.32 22.54 17.34 19.33 17.34"/>
      <path class="cls-9" d="m22.6,17.94s-.73.03-1.62.03-1.62-.01-1.62-.03.73-.03,1.62-.03,1.62.01,1.62.03Z"/>
      <path class="cls-9" d="m22.6,18.39s-.73.03-1.62.03-1.62-.01-1.62-.03.73-.03,1.62-.03,1.62.01,1.62.03Z"/>
      <path class="cls-9" d="m22.6,18.85s-.73.03-1.62.03-1.62-.01-1.62-.03.73-.03,1.62-.03,1.62.01,1.62.03Z"/>
      <path class="cls-9" d="m22.6,19.3s-.73.03-1.62.03-1.62-.01-1.62-.03.73-.03,1.62-.03,1.62.01,1.62.03Z"/>
      <path class="cls-9" d="m22.6,19.75s-.73.03-1.62.03-1.62-.01-1.62-.03.73-.03,1.62-.03,1.62.01,1.62.03Z"/>
    </g>
    <g>
      <path class="cls-9" d="m29.2,45.44c.05.35-.19.68-.56.75-.36.05-.7-.18-.76-.53s.19-.68.56-.75c.36-.05.7.18.76.53Z"/>
      <path class="cls-2" d="m27.51,47.66c.05,0,3.31-.52,3.31-.52,0,0-.8-1.47-2.1-1.27-1.3.2-1.21,1.79-1.21,1.79Z"/>
    </g>
    <g>
      <path class="cls-9" d="m15.17,45.84c-.1.35-.46.56-.81.47s-.57-.45-.48-.79c.1-.35.46-.56.81-.47s.57.45.48.79Z"/>
      <path class="cls-2" d="m12.71,47.22l3.25.81s-.13-1.67-1.41-1.99c-1.28-.32-1.85,1.17-1.85,1.17h.01Z"/>
    </g>
    <g>
      <path class="cls-9" d="m25.45,10.13s2.36,1.01,4.08,2.03l-.35,1.45-4.19-1.14.15-1.11.31-1.23Z"/>
      <path class="cls-2" d="m29.18,11.2l-.13,2.77s1.68,1.11,2.34,1.31c.65.2,3.43.93,3.43.93l.68-1.16s-2.79-2.15-3.99-2.8c-1.22-.65-2.33-1.05-2.33-1.05Z"/>
      <path class="cls-9" d="m30.03,11.49s0,.03.01.09c0,.06,0,.15.02.25.01.22.03.53.04.91v-.02c.37.21.83.47,1.35.76h.02v.03c0,.12.01.26.02.38l-.02-.03c.13.06.27.13.41.19.91.43,1.74.81,2.35,1.1.29.14.53.26.7.34.07.04.14.07.19.1.04.02.06.03.06.04,0,0-.02,0-.07-.02s-.12-.05-.19-.09c-.18-.07-.43-.19-.72-.32-.61-.28-1.44-.66-2.36-1.08-.14-.06-.28-.13-.41-.19h-.02v-.03c0-.13-.01-.27-.02-.38l.02.03c-.5-.29-.96-.56-1.35-.77h-.01v-.02c0-.37-.02-.68-.02-.91v-.35Z"/>
      <path class="cls-1" d="m29.18,13.62s.09.03.22.1c.15.07.36.16.61.28.51.23,1.22.54,2.01.88s1.52.62,2.04.82c.26.1.46.18.62.25.15.05.22.1.22.1,0,0-.09-.02-.23-.07s-.36-.13-.63-.22c-.53-.19-1.26-.47-2.05-.8-.79-.33-1.49-.65-2.01-.9-.26-.12-.46-.22-.6-.3-.14-.07-.21-.12-.21-.12h.01Z"/>
    </g>
    <g>
      <path class="cls-9" d="m25.87,32.85c.09.54.59.93,1.11.84.52-.09.86-.59.78-1.14-.09-.54-.59-.93-1.11-.84-.52.09-.86.59-.78,1.14Z"/>
      <path class="cls-2" d="m25.57,33.78l2.1,11.46,1.46-.23s1.09-5.63,1.06-6.95-1.41-4.94-1.41-4.94c0,0-.91-.31-1.73-.05-.81.26-1.49.73-1.49.73h.01Z"/>
      <path class="cls-9" d="m28.25,33v.03s.02.05.03.09c.02.09.05.2.09.34.07.3.17.74.29,1.27.11.54.23,1.19.33,1.91.05.36.1.75.12,1.14.03.4,0,.81-.02,1.23-.1,1.68-.21,3.19-.3,4.29-.04.54-.09.98-.11,1.3-.01.15-.02.27-.03.35,0,.03,0,.06-.01.1v.03-.13c0-.09.01-.2.02-.35.02-.31.05-.76.09-1.3.07-1.1.19-2.62.28-4.29.02-.42.04-.83.02-1.22-.02-.4-.06-.78-.11-1.13-.1-.73-.21-1.37-.31-1.91-.11-.54-.19-.98-.26-1.28-.03-.15-.05-.27-.07-.35,0-.03-.01-.06-.02-.09v-.03h-.02Z"/>
      <path class="cls-1" d="m25.87,35.72s.05.02.14.07.2.13.35.21c.29.18.69.45,1.14.74.44.29.84.56,1.13.75.14.1.26.18.34.23.07.05.12.09.12.1,0,0-.05-.02-.14-.07s-.2-.13-.35-.21c-.29-.18-.69-.45-1.14-.74-.44-.29-.84-.56-1.13-.75-.14-.1-.26-.18-.34-.23-.07-.05-.12-.09-.12-.1Z"/>
    </g>
    <g>
      <path class="cls-9" d="m23.47,26.64c-.85-.11-1.6-.8-1.75-1.62-.15-.83.31-1.73,1.08-2.11.77-.38,1.78-.21,2.38.4l.38,2.32-2.1,1.03h.01Z"/>
      <path class="cls-2" d="m25.51,22.57c-.09-.06-2.37,3.51-2.37,3.51l1.74,6.4s2.06.25,2.51-.16c.45-.42.91-2.41.91-2.41,0,0-1.08-6.15-2.79-7.34Z"/>
      <path class="cls-9" d="m27.21,32.37s-.01-.03-.03-.1-.04-.16-.06-.27c-.05-.23-.13-.57-.22-.97-.19-.83-.45-1.96-.73-3.21-.02-.09-.04-.18-.06-.27h0v-.03c.16-.22.32-.45.47-.66v.02c-.02-.19-.11-.4-.17-.58-.07-.18-.14-.36-.21-.53-.14-.34-.28-.65-.41-.92h0v-.02c.18-.38.32-.69.43-.93.05-.11.09-.18.12-.25.03-.05.04-.09.04-.09,0,0,0,.03-.03.1s-.06.15-.11.26c-.1.22-.23.54-.41.93v-.02c.13.27.28.58.42.92.07.17.15.35.21.53.06.19.15.37.17.61h0v.02c-.15.21-.31.44-.46.66v-.03c.02.09.04.18.06.27.28,1.26.52,2.39.7,3.22.09.41.16.74.2.98.02.11.04.2.05.27.01.06.01.1.01.1h.01Z"/>
      <path class="cls-1" d="m25.87,32.56s-.01-.03-.03-.1c-.02-.07-.04-.17-.07-.29-.06-.26-.15-.61-.26-1.05-.21-.89-.5-2.1-.82-3.45-.14-.61-.28-1.19-.4-1.71h0v-.02c.43-.85.83-1.57,1.14-2.06.15-.25.29-.44.38-.57.04-.05.09-.11.11-.14.02-.03.04-.04.04-.04,0,0,0,.02-.03.05-.02.04-.06.09-.11.15-.09.13-.21.32-.36.58-.3.49-.69,1.22-1.11,2.07v-.02c.13.52.27,1.11.41,1.71.31,1.35.6,2.56.8,3.46.1.44.18.79.23,1.05.02.12.04.21.06.29.01.06.02.1.02.1h-.01Z"/>
    </g>
    <path class="cls-9" d="m1.5,19.67c-.02.07-.3,1.92-.3,1.92,0,0-.27-.05-.37-.37-.11-.32.14-1.62.14-1.62,0,0,.53.07.53.07Z"/>
    <path class="cls-9" d="m.74,21s-.19.04-.33-.3.12-1.36.14-1.35.42.23.42.23c0,0-.22,1.41-.22,1.41Z"/>
    <path class="cls-9" d="m.37,20.53s-.19.04-.33-.3c-.13-.33.12-1.36.14-1.35s.42.23.42.23c0,0-.22,1.41-.22,1.41Z"/>
    <path class="cls-9" d="m2.41,16.74c0,.44-.36.79-.81.79s-.81-.35-.81-.79.36-.79.81-.79.81.35.81.79Z"/>
    <g>
      <polygon class="cls-4" points="11.68 11.77 16.14 10.31 16.29 10.68 11.78 12.18 11.68 11.77"/>
      <path class="cls-9" d="m12.12,12.07s-.04-.09-.07-.19-.05-.2-.05-.2c0,0,.04.09.07.19s.05.2.05.2Z"/>
      <path class="cls-9" d="m12.38,11.98s-.04-.09-.09-.19-.06-.2-.05-.2c0,0,.04.09.09.19s.06.2.05.2Z"/>
      <path class="cls-9" d="m12.65,11.89s-.04-.09-.09-.19-.06-.19-.05-.19c0,0,.04.09.09.19s.06.19.05.19Z"/>
      <path class="cls-9" d="m12.9,11.82s-.04-.09-.09-.19-.06-.2-.05-.2.04.09.09.19.06.2.05.2Z"/>
      <path class="cls-9" d="m13.16,11.73s-.04-.09-.09-.19-.06-.2-.05-.2.04.09.09.19.06.2.05.2Z"/>
      <path class="cls-9" d="m13.46,11.62s-.05-.07-.1-.18c-.05-.11-.09-.19-.07-.19,0,0,.05.07.1.18.05.11.09.19.07.19Z"/>
      <path class="cls-9" d="m13.73,11.52s-.04-.07-.09-.18-.06-.19-.05-.19c0,0,.04.07.09.18.04.1.06.18.05.19Z"/>
      <path class="cls-9" d="m14.01,11.42s-.04-.07-.09-.18c-.04-.1-.06-.18-.06-.19s.04.07.09.18c.04.1.06.18.06.19Z"/>
      <path class="cls-9" d="m14.33,11.34s-.05-.07-.11-.18c-.05-.11-.09-.19-.07-.19,0,0,.05.07.11.18.05.11.09.19.07.19Z"/>
      <path class="cls-9" d="m14.59,11.24s-.05-.07-.1-.18-.07-.19-.06-.19c0,0,.05.07.1.18s.07.19.06.19Z"/>
      <path class="cls-9" d="m14.89,11.16s-.05-.07-.1-.18c-.05-.11-.09-.19-.07-.19,0,0,.05.07.1.18s.09.19.07.19Z"/>
      <path class="cls-9" d="m15.15,11.05s-.04-.07-.09-.18c-.04-.11-.06-.18-.05-.19,0,0,.04.07.09.18.04.11.06.18.05.19Z"/>
      <path class="cls-9" d="m15.39,10.96s-.04-.07-.09-.18c-.03-.1-.06-.18-.05-.18,0,0,.04.07.09.18.03.1.06.18.05.18Z"/>
      <path class="cls-9" d="m15.63,10.91s-.04-.09-.07-.18c-.03-.11-.05-.19-.04-.19,0,0,.04.07.07.18.03.11.05.19.04.19Z"/>
    </g>
    <g>
      <polygon class="cls-4" points="11.93 12.79 15.84 11.71 15.84 11.56 11.86 12.65 11.93 12.79"/>
      <path class="cls-9" d="m12.21,12.71s-.02-.02-.03-.05c-.01-.03-.01-.06,0-.06,0,0,.02.02.03.05.01.03.01.06,0,.06Z"/>
      <path class="cls-9" d="m12.47,12.64s-.02-.02-.04-.06c-.01-.03-.02-.07-.01-.07,0,0,.02.02.04.06.01.04.02.07.01.07Z"/>
      <path class="cls-9" d="m12.7,12.58s-.02-.02-.03-.06c-.01-.03-.02-.06,0-.07,0,0,.02.02.03.06.01.03.02.06,0,.07Z"/>
      <path class="cls-9" d="m12.96,12.49s-.02-.02-.03-.05c-.01-.03-.02-.06,0-.06,0,0,.02.02.03.05.01.03.02.06,0,.06Z"/>
      <path class="cls-9" d="m13.19,12.29s.02.03.03.06c0,.04.01.07,0,.07,0,0-.02-.03-.03-.06,0-.04-.01-.07,0-.07Z"/>
      <path class="cls-9" d="m13.5,12.36s-.02-.03-.03-.06c-.01-.04-.02-.07,0-.07,0,0,.02.03.03.06.01.04.02.07,0,.07Z"/>
      <path class="cls-9" d="m13.76,12.29s-.02-.02-.03-.06c-.01-.03-.02-.06,0-.07,0,0,.02.02.03.06.01.03.02.06,0,.07Z"/>
      <path class="cls-9" d="m14.03,12.21s-.02-.02-.03-.06c-.01-.03-.01-.06,0-.07s.02.02.03.06c.01.03.01.06,0,.07Z"/>
      <path class="cls-9" d="m14.32,12.12h0v.02-.02s-.03-.03-.04-.06c-.01-.04-.02-.07-.01-.07s.02.02.04.06c0,.03.02.05.01.06h-.01.01Z"/>
      <path class="cls-9" d="m14.61,12.04s-.02-.02-.03-.06c-.01-.03-.01-.06,0-.06,0,0,.02.02.03.06.01.03.01.06,0,.06Z"/>
      <path class="cls-9" d="m14.92,11.96s-.02-.02-.03-.06c-.01-.03-.02-.06,0-.06,0,0,.02.02.03.06.01.03.02.06,0,.06Z"/>
      <path class="cls-9" d="m15.22,11.88s-.02-.02-.03-.06c-.01-.03-.02-.06,0-.07s.02.02.03.06c.01.03.02.06,0,.07Z"/>
      <path class="cls-9" d="m15.48,11.8s-.02-.02-.03-.05-.01-.06,0-.06c0,0,.02.02.03.05s.01.06,0,.06Z"/>
    </g>
    <path class="cls-8" d="m18.01,9.77c.04-.14,0-.38,0-.38h6.12v5.51c0,.94-.62,1.78-1.54,2.08h0v.45h-3.3v-.45l-.35-.22c-.65-.42-1.04-1.12-1.03-1.88l.1-5.11h0Z"/>
    <path class="cls-9" d="m24.17,9.36v5.64c-.01.27-.09.54-.21.8-.25.52-.73.96-1.33,1.16l.02-.03v.48h-.07l.03-.03v2.91h-3.28v-2.93l.03.03h-.07v-.48l.02.03c-.16-.1-.31-.19-.47-.3-.15-.11-.29-.23-.41-.37-.23-.28-.4-.61-.47-.95-.04-.17-.05-.35-.05-.52v-.51c0-.33.01-.66.02-.99.02-1.3.05-2.51.07-3.59h0c.03-.12.02-.25,0-.36v-.03h.03c1.88,0,3.41.01,4.47.01h1.64-1.65c-1.06,0-2.58,0-4.46.01l.03-.03c.02.13.04.26,0,.4h0c-.02,1.08-.04,2.28-.06,3.59,0,.32-.01.65-.02.99,0,.33-.04.68.04,1.01.07.33.22.65.46.93.12.14.25.26.4.36.15.11.31.2.46.3h.02v.48l-.03-.03h.07v2.93l-.03-.03h3.21l-.03.03v-2.91h.07l-.03.03v-.47h.02c.6-.19,1.07-.63,1.3-1.13.12-.26.19-.52.2-.78.01-.27,0-.52,0-.77v-4.88h.05Z"/>
    <polygon class="cls-6" points="18.1 15.8 20.49 15.8 23.93 15.8 24.13 14.91 24.13 9.4 18.01 9.4 18.1 15.8"/>
    <path class="cls-9" d="m11.75,11.13s-2.4.93-4.14,1.88l.3,1.47,4.23-.99-.11-1.11-.27-1.24h-.01Z"/>
    <path class="cls-2" d="m7.99,12.05l.02,2.78s-1.72,1.05-2.38,1.23-3.46.8-3.46.8l-.64-1.19s2.86-2.05,4.1-2.66,2.36-.97,2.36-.97h0Z"/>
    <path class="cls-9" d="m7.13,12.31v.09c0,.06,0,.15-.01.25-.01.22-.03.53-.05.91h0v.02c-.4.2-.86.45-1.39.72l.02-.03c0,.12-.02.26-.03.38v.02h-.02c-.13.05-.27.12-.42.17-.93.38-1.77.74-2.39.99-.3.12-.54.22-.73.29-.09.03-.15.05-.2.07-.04.02-.07.02-.07.02l.06-.03c.05-.02.12-.05.19-.09.18-.07.43-.18.72-.31.62-.27,1.46-.62,2.39-1.01.14-.06.28-.12.42-.17l-.02.03c.01-.13.02-.27.03-.38v-.02h.02c.52-.27.99-.5,1.39-.7v.02c.02-.37.04-.68.06-.91,0-.1.02-.18.02-.25,0-.05.01-.09.01-.09h0Z"/>
    <path class="cls-2" d="m1.94,17.35l.19.28-.65,2.1s-1.12-.13-1.42-.96l.83-1.74,1.04.31h.01Z"/>
    <path class="cls-9" d="m1.92,18.14c.09.01.36.01.35.5-.02.49-.35,1.85-.35,1.85,0,0-.36.02-.3-.4.06-.42.3-1.95.3-1.95Z"/>
    <ellipse class="cls-9" cx="20.84" cy="12.58" rx=".85" ry=".83"/>
    <path class="cls-4" d="m15.71,9.29s.07-.1.12-.14l-.04-.16.26-.13.12.13c.06-.01.12-.02.18-.02l.09-.15.28.09v.17s.09.07.13.12l.17-.04.14.25-.13.11c.01.05.02.12.02.18l.15.09-.09.27h-.17s-.07.09-.12.13l.04.16-.26.13-.12-.13c-.06.01-.12.02-.18.02l-.09.15-.28-.09v-.17s-.09-.07-.13-.12l-.17.04-.14-.25.13-.11c-.01-.05-.02-.12-.02-.18l-.15-.09.09-.27h.17Zm.22.28c-.06.2.05.41.26.47s.42-.05.48-.25c.06-.2-.05-.41-.26-.47-.2-.06-.42.05-.48.25Z"/>
    <path class="cls-4" d="m17.17,19.23s.07-.1.12-.14l-.04-.16.26-.13.12.13c.06-.01.12-.02.18-.02l.09-.15.28.09v.17s.09.07.13.12l.17-.04.14.25-.13.11c.01.05.02.12.02.18l.15.09-.09.27h-.17s-.07.09-.12.13l.04.16-.26.13-.12-.13c-.06.01-.12.02-.18.02l-.09.15-.28-.09v-.17s-.09-.07-.13-.12l-.17.04-.14-.25.13-.11c-.01-.05-.02-.12-.02-.18l-.15-.09.09-.27h.17Zm.22.28c-.06.2.05.41.26.47s.42-.05.48-.25c.06-.2-.05-.41-.26-.47-.2-.06-.42.05-.48.25Z"/>
    <path class="cls-4" d="m15.96,24.59s.07-.1.12-.14l-.04-.16.26-.13.12.13c.06-.01.12-.02.18-.02l.09-.15.28.09v.17s.09.07.13.12l.17-.04.14.25-.13.11c.01.05.02.12.02.18l.15.09-.09.27h-.17s-.07.09-.12.13l.04.16-.26.13-.12-.13c-.06.01-.12.02-.18.02l-.09.15-.28-.09v-.17s-.09-.07-.13-.12l-.17.04-.14-.25.13-.11c-.01-.05-.02-.12-.02-.18l-.15-.09.09-.27h.17Zm.22.28c-.06.2.05.41.26.47s.42-.05.48-.25c.06-.2-.05-.41-.26-.47-.2-.06-.42.05-.48.25Z"/>
    <path class="cls-4" d="m14.45,30.81s.07-.1.12-.14l-.04-.16.26-.13.12.13c.06-.01.12-.02.18-.02l.09-.15.28.09v.17s.09.07.13.12l.17-.04.14.25-.13.11c.01.05.02.12.02.18l.15.09-.09.27h-.17s-.07.09-.12.13l.04.16-.26.13-.12-.13c-.06.01-.12.02-.18.02l-.09.15-.28-.09v-.17s-.09-.07-.13-.12l-.17.04-.14-.25.13-.11c-.01-.05-.02-.12-.02-.18l-.15-.09.09-.27h.17Zm.22.28c-.06.2.05.41.26.47s.42-.05.48-.25c.06-.2-.05-.41-.26-.47s-.42.05-.48.25Z"/>
    <g>
      <path class="cls-2" d="m17.21,9.25l-1.48.79v2.18l1.12,2.59c.17.41.59.67,1.04.67h2.11v-1.52s-.85-.26-.78-1.25c.06-.85.78-1.12.78-1.12v-2.36h-2.79,0Z"/>
      <path class="cls-9" d="m19.98,14.95s-.05-.01-.14-.04c-.1-.04-.22-.09-.38-.15-.34-.14-.81-.33-1.36-.56h-.02v-.02c-.09-.45-.18-.95-.28-1.48-.17-.95-.33-1.82-.44-2.43-.05-.3-.1-.56-.13-.74-.01-.09-.02-.15-.03-.2v-.07s0,.02.02.06c.01.05.02.12.04.2.03.18.09.43.15.74.12.62.29,1.48.46,2.43.1.53.19,1.04.28,1.48l-.02-.02c.54.23,1,.43,1.35.58.16.06.28.13.38.17.09.04.14.06.13.06h-.01Z"/>
      <path class="cls-1" d="m17.77,12.31s-.1.03-.28.09c-.18.04-.43.11-.74.17h-.03v-.02c-.1-.23-.2-.5-.32-.78-.19-.48-.36-.92-.48-1.23-.06-.16-.11-.29-.14-.37s-.04-.14-.04-.14c0,0,.03.04.06.13.04.09.1.21.16.36.13.31.31.75.5,1.23.11.29.21.56.31.79l-.03-.02c.3-.06.56-.12.74-.15.18-.03.29-.05.29-.04h0Z"/>
      <path class="cls-5" d="m15.72,11.18l1.39,3.04c.15.32.43.56.77.66l2.11.61h-2.11c-.45,0-.86-.27-1.04-.67l-1.12-2.59v-1.05Z"/>
    </g>
    <g>
      <path class="cls-2" d="m24.92,8.22l1.48.79v2.18l-1.11,2.56c-.18.43-.61.69-1.08.69h-2.08v-1.52s.83-.18.84-1.26c0-.86-.84-1.1-.84-1.1v-2.36h2.79Z"/>
      <path class="cls-9" d="m22.13,13.92s.04-.02.14-.05c.1-.03.22-.09.38-.14.34-.12.82-.29,1.38-.49l-.02.02c.07-.46.17-.99.26-1.55.17-.97.32-1.84.44-2.48.05-.31.11-.57.14-.75.02-.09.03-.15.04-.2,0-.04.02-.07.02-.07v.07c0,.05-.02.12-.03.2-.03.19-.06.44-.12.75-.11.63-.25,1.51-.42,2.48-.1.56-.19,1.08-.27,1.55v.02h-.02c-.57.19-1.05.35-1.39.47-.16.05-.3.1-.4.13s-.14.04-.14.04Z"/>
      <path class="cls-1" d="m24.36,11.39s.11.01.28.06c.17.04.43.11.73.19l-.04.02c.11-.25.23-.53.35-.84.19-.49.36-.93.49-1.27.06-.15.11-.28.15-.38.03-.09.06-.14.06-.14,0,0,0,.05-.04.15-.03.1-.07.22-.13.4-.12.33-.28.79-.47,1.28-.13.31-.25.6-.36.84v.02h-.04c-.3-.09-.54-.16-.72-.21s-.27-.09-.27-.1v-.02Z"/>
      <path class="cls-5" d="m26.4,10.15l-1.39,3.04c-.15.32-.43.56-.77.66l-2.11.61h2.11c.45,0,.86-.27,1.04-.67l1.12-2.59v-1.05Z"/>
    </g>
    <g>
      <g>
        <path class="cls-8" d="m20.46.31s-2.34.13-2.5,1.92c-.16,1.71-.01,2.74.26,3.2.1.16.58.59.8.86.23.28.29.68.5.91.22.22.52.35.85.35h.5c.33,0,.64-.14.86-.37.26-.27.31-.68.4-1.21.06-.38.84-.91.93-1.27.33-1.3.28-2.36.17-2.75s-.74-1.7-2.78-1.65h0Z"/>
        <path class="cls-9" d="m20.46.31h.21c.06,0,.16,0,.26.01s.21.01.35.04c.26.04.58.14.91.32.09.04.16.1.25.15.07.06.16.12.23.19.15.14.3.32.42.51.05.1.11.2.15.32.04.12.06.23.07.36.03.25.03.51.03.78-.02.54-.1,1.12-.25,1.71-.05.16-.15.28-.26.4s-.21.23-.33.35c-.11.12-.21.23-.29.37-.03.07-.05.14-.06.22s-.02.16-.04.25c-.03.16-.06.33-.12.49-.05.16-.14.32-.27.45s-.28.22-.46.29c-.09.03-.17.05-.27.06s-.18,0-.27,0h-.27c-.09,0-.18,0-.27-.01-.18-.02-.35-.1-.5-.19-.07-.05-.14-.11-.2-.17-.06-.06-.11-.14-.15-.21-.07-.15-.14-.31-.2-.46-.07-.15-.17-.27-.29-.38-.11-.12-.22-.23-.34-.34-.11-.12-.22-.22-.32-.36-.09-.14-.14-.29-.17-.44-.15-.6-.16-1.17-.15-1.72,0-.27.02-.53.04-.78s.03-.49.12-.72c.14-.45.46-.77.77-.97.31-.2.62-.32.88-.4.26-.07.46-.11.6-.12.06,0,.12-.01.16-.01h.05-.05s-.09.01-.16.02c-.14.02-.34.05-.59.14-.25.07-.56.19-.85.4-.3.2-.61.52-.74.96-.07.21-.09.46-.11.7s-.03.51-.03.78c0,.53,0,1.12.15,1.7.04.14.09.29.17.42.09.12.2.23.32.34.12.12.22.22.34.35.12.12.22.26.3.41.07.15.13.31.2.46.04.07.09.14.14.2.05.06.12.12.19.16.14.1.3.16.47.18.09.01.17.01.26.01h.53c.09,0,.17-.03.25-.05.16-.05.31-.15.43-.27.12-.12.2-.27.25-.42.05-.16.09-.32.12-.48.01-.09.02-.16.04-.25,0-.07.03-.17.07-.25.09-.15.19-.27.3-.38s.22-.23.33-.34c.11-.12.2-.23.25-.37.15-.59.23-1.15.26-1.7,0-.27,0-.52-.02-.78-.01-.13-.03-.25-.07-.35-.04-.11-.1-.21-.15-.32-.12-.2-.26-.36-.41-.51-.07-.07-.16-.13-.23-.19-.09-.05-.16-.11-.23-.15-.32-.18-.63-.28-.89-.32-.13-.03-.25-.03-.34-.05-.1-.01-.18-.01-.26-.02h-.21l-.04-.02Z"/>
      </g>
      <path class="cls-4" d="m20.11,4.69s.06-.09.1-.12l-.04-.14.21-.11.1.11s.11-.02.15-.01l.07-.12.22.06v.14s.07.06.11.1l.14-.03.11.2-.11.1s.02.1.01.15l.13.06-.06.22h-.14s-.06.07-.1.11l.04.14-.21.11-.1-.11s-.11.02-.15.01l-.07.12-.22-.06v-.14s-.07-.06-.11-.1l-.14.03-.11-.2.11-.1s-.02-.1-.01-.15l-.13-.06.06-.22h.14Zm.19.23c-.05.16.04.34.21.38s.35-.04.4-.2c.05-.16-.04-.34-.21-.38s-.35.04-.4.2Z"/>
      <rect class="cls-9" x="18.37" y="2.7" width="4.47" height="1.39" rx=".6" ry=".6"/>
      <path class="cls-2" d="m19.1,2.43h1.4V0c-.73.13-2.62.61-2.74,1.98-.01.16-.02.31-.03.46-.14,0-.3.05-.36.16-.07.15-.1.32-.1.49,0,.27,0,.54.02.81,0,.13.02.26.06.37.04.12.13.22.23.27.09.03.19.02.27-.04.05.18.12.33.19.45.19.32,1.05,1.27,1.48,1.72.22.22.65.35.97.35v-2.73h-1.4c-.52,0-.95-.42-.95-.93h0c0-.51.43-.93.95-.93h0Z"/>
      <path class="cls-9" d="m17.73,2.1s.06.54.1,1.21c.03.67.04,1.22.02,1.22s-.06-.54-.1-1.21c-.03-.67-.04-1.22-.02-1.22Z"/>
      <path class="cls-9" d="m20.49,1.45s-.13.02-.34.02h-.82c-.16,0-.33-.03-.45-.11-.13-.07-.21-.17-.27-.27s-.07-.17-.1-.22-.03-.09-.02-.09.02.02.05.07c.03.05.06.13.12.21.05.09.14.17.26.23s.26.1.42.1c.32,0,.61,0,.82.02s.34.02.34.03h-.01Z"/>
      <path class="cls-1" d="m18.51,2.64s-.19-.25-.35-.59c-.17-.34-.26-.64-.23-.64s.14.28.3.62c.16.34.31.61.29.62h0Z"/>
      <path class="cls-5" d="m17.79,3.6s.48,1.49,1.09,1.98c.61.48.72.93,1.08,1.01l.54.11v.32s-.49,0-.82-.23c-.26-.19-.8-.82-.8-.82,0,0-.72-.78-.83-1.03-.12-.25-.19-.45-.19-.45,0,0-.06-.89-.06-.89Z"/>
      <g>
        <path class="cls-2" d="m26.6,2.96c-.03-.12-.1-.23-.19-.3-.07-.04-.18-.04-.26,0,0-.16-.02-.32-.04-.49-.13-1.36-1.83-1.84-2.55-1.98v2.43h1.21c.52,0,.95.42.95.93s-.43.93-.95.93h-1.28v2.73c.32,0,.63-.13.85-.35.43-.45,1.29-1.4,1.48-1.72.06-.11.13-.25.18-.41.13.01.28-.02.35-.12.1-.13.14-.31.17-.47.04-.27.07-.53.1-.8,0-.13.01-.26-.01-.37v-.02Z"/>
        <path class="cls-9" d="m23.57,1.52s.47-.03,1.04-.04c.28-.02.48-.2.58-.35.09-.16.14-.27.15-.26,0,0-.02.11-.11.28-.09.17-.3.37-.61.4h-.74c-.19,0-.3-.01-.3-.02h-.01Z"/>
        <path class="cls-9" d="m26,4.72v-.3c.01-.21.03-.46.04-.73.02-.27.03-.51.05-.73.01-.18.02-.3.03-.3.02,0,.03.46,0,1.04-.02.29-.04.54-.06.73-.02.18-.04.3-.05.3h-.01Z"/>
        <path class="cls-1" d="m25.04,2.66s.13-.31.34-.67c.2-.36.38-.65.4-.64.02,0-.13.31-.34.67-.2.36-.38.65-.4.64Z"/>
        <path class="cls-5" d="m26.07,3.79s-.48,1.49-1.09,1.98c-.61.48-.72.93-1.08,1.01l-.41.09v.34s.36.02.69-.22c.26-.19.79-.81.79-.81,0,0,.72-.81.85-1.05.14-.25.18-.41.18-.41l.06-.94h-.01Z"/>
      </g>
    </g>
    <g>
      <path class="cls-2" d="m19.03,20.95l-2.09.64v.7l2.58,3.15h2.27l2.47-3.03v-.91l-1.96-.61c-.19-.05-.4-.01-.53.12l-1.01.93-.85-.8c-.22-.21-.56-.29-.85-.19h-.01Z"/>
      <path class="cls-5" d="m16.94,21.59l2.2,2.74c.33.42.83.65,1.38.66h.26c.58,0,1.12-.26,1.45-.72l2.04-2.78v.91l-2.47,3.03h-2.27l-2.58-3.15v-.7Z"/>
      <path class="cls-9" d="m20.78,25.48s-.05-.77-.07-1.71c-.02-.94-.02-1.71,0-1.71s.05.77.07,1.71c.02.94.02,1.71,0,1.71Z"/>
      <path class="cls-1" d="m23.24,21.18s0,.02-.02.05c-.02.04-.05.09-.09.14-.09.13-.19.3-.33.51-.29.44-.68,1.05-1.14,1.74h-.02c-.29.01-.59.01-.9.01h-.99v-.02c-.42-.69-.78-1.3-1.05-1.74-.13-.21-.22-.38-.3-.51-.03-.05-.05-.1-.07-.14-.02-.03-.02-.05-.02-.05,0,0,.01.01.03.04s.05.07.09.13c.07.13.18.3.32.5.27.44.64,1.04,1.07,1.73l-.03-.02h1.87-.03c.46-.67.86-1.27,1.16-1.72.14-.2.26-.37.34-.5.04-.05.07-.1.1-.13s.03-.04.03-.04v.02Z"/>
    </g>
    <g>
      <path class="cls-9" d="m14.52,25.82c.86.06,1.73-.48,2.04-1.27.31-.79.03-1.75-.65-2.27-.68-.52-1.71-.54-2.41-.06l-.83,2.2,1.86,1.4h0Z"/>
      <path class="cls-2" d="m13.31,21.44c.1-.04,1.63,3.9,1.63,3.9l-2.97,5.95s-2.07-.14-2.43-.63c-.35-.49-.41-2.54-.41-2.54,0,0,2.27-5.83,4.19-6.67h-.01Z"/>
      <path class="cls-9" d="m9.71,30.74s0-.03.03-.09c.02-.06.06-.15.11-.26.1-.22.23-.53.4-.92.34-.78.81-1.85,1.32-3.03.03-.09.07-.17.11-.26v.03c-.11-.26-.22-.5-.32-.74h0v-.02c.06-.21.18-.38.29-.57.11-.17.21-.33.32-.48.21-.31.42-.58.6-.82v.02c-.1-.42-.16-.75-.21-.99-.02-.11-.04-.2-.05-.27s-.02-.1-.01-.1.01.03.03.1c.02.06.04.16.06.27.05.25.14.58.23.98h0v.02c-.18.25-.37.52-.59.82-.11.15-.21.32-.32.48-.1.17-.21.35-.28.54v-.02c.11.23.21.48.32.74h0v.03c-.03.09-.07.17-.11.26-.52,1.17-1,2.24-1.35,3.02-.17.38-.31.69-.42.91-.05.11-.09.18-.12.25-.03.05-.04.09-.04.09h-.01Z"/>
      <path class="cls-1" d="m10.99,31.18s0-.03.03-.1.06-.16.12-.27c.11-.23.26-.58.44-.98.37-.83.9-1.98,1.46-3.25.26-.57.51-1.11.74-1.6v.02c-.25-.92-.49-1.7-.68-2.24-.1-.27-.18-.48-.25-.63-.03-.06-.05-.12-.07-.16-.01-.04-.02-.05-.02-.05,0,0,.01.02.03.05.02.04.04.1.09.16.06.14.16.35.26.62.2.54.46,1.31.72,2.24h0v.02c-.22.49-.47,1.04-.73,1.6-.58,1.26-1.1,2.4-1.48,3.24-.19.41-.34.74-.46.97-.05.11-.1.2-.13.27s-.04.1-.05.09Z"/>
    </g>
    <g>
      <path class="cls-9" d="m16.37,32.57c-.19.52-.74.81-1.21.64s-.68-.73-.49-1.25c.19-.52.74-.81,1.21-.64s.68.73.49,1.25Z"/>
      <path class="cls-2" d="m16.46,33.53l-4.31,10.85-1.31-.47s.15-5.68.45-6.97,2.33-4.59,2.33-4.59c0,0,.91-.15,1.62.25.7.4,1.24.96,1.24.96v-.02Z"/>
      <path class="cls-9" d="m14.12,32.3v.03s-.02.05-.03.09c-.03.09-.09.19-.14.33-.12.29-.3.69-.5,1.21-.2.51-.45,1.12-.68,1.82-.12.34-.23.7-.33,1.09-.11.38-.16.79-.23,1.2-.26,1.65-.47,3.16-.62,4.26-.07.54-.14.98-.18,1.29-.02.15-.04.27-.05.35,0,.03-.01.06-.01.1v.03-.13c0-.09.02-.2.04-.35.04-.31.1-.75.16-1.29.14-1.09.34-2.59.6-4.26.07-.42.13-.82.23-1.21s.22-.75.34-1.09c.25-.69.48-1.3.69-1.8.21-.51.4-.92.52-1.2.06-.14.12-.25.15-.32.02-.03.03-.06.04-.09,0-.02.01-.03.02-.03l-.02-.02Z"/>
      <path class="cls-1" d="m15.78,35.35s-.04.03-.13.07-.2.1-.36.17c-.31.14-.74.33-1.21.54-.47.21-.9.4-1.22.52-.16.06-.28.12-.37.15-.09.03-.14.05-.14.04,0,0,.04-.03.13-.07s.2-.1.36-.17c.31-.14.73-.33,1.21-.54.47-.21.9-.4,1.21-.52.16-.06.28-.12.37-.15.09-.03.14-.05.14-.04h.01Z"/>
    </g>
    <path class="cls-1" d="m7.9,14.47s-.07.04-.21.11-.35.16-.61.28c-.51.22-1.24.52-2.04.82-.8.31-1.54.56-2.07.74-.27.09-.48.16-.64.2-.15.04-.23.06-.23.06,0,0,.07-.03.22-.09.16-.05.37-.13.63-.22.53-.18,1.26-.45,2.07-.75.8-.31,1.53-.6,2.04-.81.26-.11.46-.19.62-.26.15-.06.22-.09.23-.09h-.01Z"/>
    <path class="cls-9" d="m38.46,19.69c.06.05,1.35,1.44,1.35,1.44,0,0,.19-.19.11-.51-.1-.32-1.05-1.28-1.05-1.28,0,0-.41.35-.41.35Z"/>
    <path class="cls-9" d="m39.86,20.39s.18-.07.11-.43c-.09-.35-.88-1.06-.89-1.05,0,.02-.21.42-.21.42l.99,1.05h0Z"/>
    <path class="cls-9" d="m39.91,19.81s.18-.07.11-.43c-.09-.35-.88-1.06-.89-1.05,0,.02-.21.42-.21.42l.99,1.05h0Z"/>
    <path class="cls-9" d="m36.05,17.76c.25.36.75.46,1.12.21s.47-.74.22-1.1-.75-.46-1.12-.21-.47.74-.22,1.1Z"/>
    <path class="cls-2" d="m36.85,17.83l-.04.33,1.52,1.62s.95-.59.85-1.46l-1.53-1.22-.8.72h0Z"/>
    <path class="cls-9" d="m37.26,18.65c-.06.05-.3.21,0,.61.3.4,1.35,1.35,1.35,1.35,0,0,.31-.18.02-.49-.29-.31-1.37-1.46-1.37-1.46Z"/>
    <g>
      <g>
        <polygon class="cls-4" points="15.59 20.37 15.22 19.9 15.44 19.74 15.82 20.21 15.59 20.37"/>
        <path class="cls-9" d="m15.59,20.37l.05-.05s.09-.07.15-.13h0c-.1-.11-.23-.27-.37-.45-.02,0,.02,0,.02,0h-.01l-.03.03s-.03.03-.05.04c-.03.03-.07.05-.11.07v-.02c.11.14.2.26.27.33.03.04.05.07.07.1s.03.04.03.04l-.03-.03s-.05-.05-.07-.1c-.06-.09-.17-.2-.28-.33h0v-.02s.07-.05.12-.09c.02-.01.03-.03.05-.04l.03-.02h.01v-.02h0s.04,0,.02,0c.15.18.28.35.37.47h0c-.07.06-.13.11-.16.13-.04.03-.06.04-.05.04l-.03.04Z"/>
      </g>
      <g>
        <path class="cls-4" d="m15.17,19.64c-.11.09-.13.23-.04.35l.4-.31c-.09-.11-.25-.13-.35-.04Z"/>
        <path class="cls-9" d="m15.17,19.64l.02-.02s.04-.02.07-.03c.03,0,.09-.01.13,0,.05.01.1.04.14.09h0v.02c-.07.04-.14.1-.21.15s-.14.11-.2.15h-.01c-.03-.05-.05-.11-.05-.15,0-.05.01-.1.03-.13s.04-.05.05-.06c.01-.01.02-.02.02-.01,0,0-.03.03-.06.09-.01.03-.02.07-.02.12s.02.1.05.14h-.02c.06-.05.13-.11.2-.16s.14-.11.2-.15v.02s-.09-.07-.13-.09-.09-.01-.12,0c-.06.01-.1.04-.11.04h.01Z"/>
      </g>
      <g>
        <path class="cls-4" d="m15.29,19.69s-.12-.05-.17-.03"/>
        <path class="cls-9" d="m15.13,19.67s.03-.03.1-.02c.05,0,.09.04.07.05,0,0-.04-.02-.09-.02h-.09Z"/>
      </g>
      <path class="cls-9" d="m15.27,19.98s.05-.04.11-.1c.06-.05.11-.1.12-.09,0,0-.03.05-.1.11-.06.05-.13.07-.13.07Z"/>
      <path class="cls-9" d="m15.32,20.04s.05-.04.11-.1c.06-.05.11-.1.12-.09,0,0-.03.05-.1.11-.06.05-.13.07-.13.07Z"/>
      <path class="cls-9" d="m15.36,20.09s.05-.04.11-.1c.06-.05.11-.1.12-.09,0,0-.03.05-.1.11-.06.05-.13.07-.13.07Z"/>
      <path class="cls-9" d="m15.4,20.15s.05-.04.11-.1c.06-.05.11-.1.12-.09,0,0-.03.05-.1.11-.06.05-.13.07-.13.07Z"/>
      <path class="cls-9" d="m15.44,20.2s.05-.04.11-.1c.06-.05.11-.1.12-.09,0,0-.03.05-.1.11-.06.05-.13.07-.13.07Z"/>
      <path class="cls-9" d="m15.49,20.26s.05-.04.11-.1c.06-.05.11-.1.12-.09,0,0-.03.05-.1.11-.06.05-.13.07-.13.07Z"/>
      <path class="cls-9" d="m15.53,20.31s.05-.04.11-.1c.06-.05.11-.1.12-.09,0,0-.03.05-.1.11-.06.05-.13.07-.13.07Z"/>
    </g>
    <g>
      <g>
        <polygon class="cls-4" points="36.35 15 35.98 14.53 36.19 14.36 36.56 14.83 36.35 15"/>
        <path class="cls-9" d="m36.35,15l.05-.05s.09-.07.15-.13h0c-.1-.11-.23-.27-.37-.45-.02,0,.02,0,.02,0h-.01l-.03.03s-.03.03-.05.04c-.03.03-.07.05-.11.07v-.02c.11.14.2.26.27.33.03.04.05.07.07.1s.03.04.03.04l-.03-.03s-.05-.05-.07-.1c-.06-.09-.17-.2-.28-.33h0v-.02s.07-.05.12-.09c.02-.01.03-.03.05-.04l.03-.02h.01v-.02h0s.04,0,.02,0c.15.18.28.35.37.47h0c-.07.06-.13.11-.16.13-.04.03-.06.04-.05.04l-.03.04Z"/>
      </g>
      <g>
        <path class="cls-4" d="m35.92,14.25c-.11.09-.13.23-.04.35l.4-.31c-.09-.11-.25-.13-.35-.04Z"/>
        <path class="cls-9" d="m35.92,14.25l.02-.02s.04-.02.07-.03c.03,0,.09-.01.13,0,.05.01.1.04.14.09h0v.02c-.07.04-.14.1-.21.15s-.14.11-.2.15h-.01c-.03-.05-.05-.11-.05-.15,0-.05.01-.1.03-.13s.04-.05.05-.06.02-.02.02-.01c0,0-.03.03-.06.09-.01.03-.02.07-.02.12s.02.1.05.14h-.02c.06-.05.13-.11.2-.16s.14-.11.2-.15v.02s-.09-.07-.13-.09c-.04-.01-.09-.01-.12,0-.06.01-.1.04-.11.04h.01Z"/>
      </g>
      <g>
        <path class="cls-4" d="m36.05,14.32s-.12-.05-.17-.03"/>
        <path class="cls-9" d="m35.88,14.29s.03-.03.1-.02c.05,0,.09.04.07.05,0,0-.04-.02-.09-.02h-.09,0Z"/>
      </g>
      <path class="cls-9" d="m36.02,14.61s.05-.04.11-.1c.06-.05.11-.1.12-.09,0,0-.03.05-.1.11-.06.05-.13.07-.13.07Z"/>
      <path class="cls-9" d="m36.06,14.66s.05-.04.11-.1c.06-.05.11-.1.12-.09,0,0-.03.05-.1.11-.06.05-.13.07-.13.07Z"/>
      <path class="cls-9" d="m36.11,14.71s.05-.04.11-.1c.06-.05.11-.1.12-.09,0,0-.03.05-.1.11-.06.05-.13.07-.13.07Z"/>
      <path class="cls-9" d="m36.16,14.78s.05-.04.11-.1c.06-.05.11-.1.12-.09,0,0-.03.05-.1.11-.06.05-.13.07-.13.07Z"/>
      <path class="cls-9" d="m36.2,14.83s.05-.04.11-.1c.06-.05.11-.1.12-.09,0,0-.03.05-.1.11-.06.05-.13.07-.13.07Z"/>
      <path class="cls-9" d="m36.24,14.88s.05-.04.11-.1c.06-.05.11-.1.12-.09,0,0-.03.05-.1.11-.06.05-.13.07-.13.07Z"/>
      <path class="cls-9" d="m36.29,14.94s.05-.04.11-.1c.06-.05.11-.1.12-.09,0,0-.03.05-.1.11-.06.05-.13.07-.13.07Z"/>
    </g>
    <g>
      <rect class="cls-2" x="4.48" y="3" width=".54" height=".49"/>
      <rect class="cls-2" x="9.53" y="4.09" width=".54" height=".49"/>
      <rect class="cls-2" x="5.23" y="3" width=".38" height="1.51"/>
      <rect class="cls-2" x="5.77" y="3" width=".38" height="1.51"/>
      <rect class="cls-2" x="6.3" y="3" width=".38" height="1.51"/>
      <rect class="cls-2" x="6.84" y="3" width=".38" height="1.51"/>
      <rect class="cls-2" x="7.52" y="3.57" width="2.46" height=".36"/>
      <path class="cls-2" d="m16.54,3.75s-1.36.03-3.03.03-3.03-.01-3.03-.03,1.36-.03,3.03-.03,3.03.01,3.03.03Z"/>
      <path class="cls-2" d="m16.89,3.77c0,.12-.1.22-.22.22s-.22-.1-.22-.22.1-.22.22-.22.22.1.22.22Z"/>
    </g>
    <g>
      <rect class="cls-2" x="39.08" y="8.86" width=".54" height=".49"/>
      <rect class="cls-2" x="34.03" y="9.95" width=".54" height=".49"/>
      <rect class="cls-2" x="38.5" y="8.86" width=".38" height="1.51"/>
      <rect class="cls-2" x="37.96" y="8.86" width=".38" height="1.51"/>
      <rect class="cls-2" x="37.42" y="8.86" width=".38" height="1.51"/>
      <rect class="cls-2" x="36.87" y="8.86" width=".38" height="1.51"/>
      <rect class="cls-2" x="34.14" y="9.43" width="2.46" height=".36"/>
      <path class="cls-2" d="m27.56,9.61s1.36-.03,3.03-.03,3.03.01,3.03.03-1.36.03-3.03.03-3.03-.01-3.03-.03Z"/>
      <path class="cls-2" d="m27.22,9.63c0,.12.1.22.22.22s.22-.1.22-.22-.1-.22-.22-.22-.22.1-.22.22Z"/>
    </g>
    <g>
      <rect class="cls-2" x="30.98" y="23.61" width=".44" height="7.76"/>
      <rect class="cls-2" x="31.75" y="23.61" width=".51" height="2.07"/>
      <rect class="cls-2" x="32.46" y="24.07" width=".51" height=".48"/>
      <path class="cls-2" d="m37.81,27.31s-1,.03-2.24.03-2.24-.01-2.24-.03,1-.03,2.24-.03,2.24.01,2.24.03Z"/>
      <path class="cls-2" d="m37.81,27.85s-1,.03-2.24.03-2.24-.01-2.24-.03,1-.03,2.24-.03,2.24.01,2.24.03Z"/>
      <path class="cls-2" d="m37.79,26.81s-1,.03-2.24.03-2.24-.01-2.24-.03,1-.03,2.24-.03,2.24.01,2.24.03Z"/>
    </g>
  </g>
</svg>