<?xml version="1.0" encoding="UTF-8"?><svg id="a" xmlns="http://www.w3.org/2000/svg" xmlns:xlink="http://www.w3.org/1999/xlink" viewBox="0 0 49.93 62.78"><defs><linearGradient id="d" x1="10.7" y1="7.68" x2="10.7" y2="27.18" gradientUnits="userSpaceOnUse"><stop offset="0" stop-color="#fff"/><stop offset="1" stop-color="#000"/></linearGradient><mask id="c" x="7.46" y="7.32" width="6.5" height="19.87" maskUnits="userSpaceOnUse"><polygon points="10.7 7.68 7.46 9.56 7.46 25.31 10.7 27.18 13.95 25.31 13.95 9.56 10.7 7.68" fill="url(#d)"/></mask><linearGradient id="e" x1="7.46" y1="9.19" x2="13.95" y2="9.19" gradientUnits="userSpaceOnUse"><stop offset="0" stop-color="#6257a4"/><stop offset="1" stop-color="#3f2c7f"/></linearGradient><linearGradient id="f" y1="18" x2="10.7" y2="18" xlink:href="#e"/><linearGradient id="g" x1="10.7" y1="18" x2="13.95" y2="18" gradientUnits="userSpaceOnUse"><stop offset="0" stop-color="#542e8f"/><stop offset="1" stop-color="#612164"/></linearGradient><linearGradient id="i" x1="4.19" y1="20.27" x2="4.19" y2="39.77" xlink:href="#d"/><mask id="h" x=".95" y="20.27" width="6.5" height="19.6" maskUnits="userSpaceOnUse"><polygon points="4.19 20.27 .95 22.14 .95 37.9 4.19 39.77 7.44 37.9 7.44 22.14 4.19 20.27" fill="url(#i)"/></mask><linearGradient id="j" x1=".95" y1="31.05" x2="4.19" y2="31.05" gradientUnits="userSpaceOnUse"><stop offset="0" stop-color="#79cfe8"/><stop offset="1" stop-color="#576cb2"/></linearGradient><linearGradient id="l" x1="46.68" y1="25.07" x2="46.68" y2="37.26" xlink:href="#d"/><mask id="k" x="43.43" y="25.07" width="6.5" height="12.29" maskUnits="userSpaceOnUse"><polygon points="46.68 25.07 43.43 26.95 43.43 35.39 46.68 37.26 49.93 35.39 49.93 26.95 46.68 25.07" fill="url(#l)"/></mask><linearGradient id="m" x1="43.43" y1="32.2" x2="46.68" y2="32.2" xlink:href="#j"/><linearGradient id="o" x1="42.47" y1="11.5" x2="42.47" y2="23.69" xlink:href="#d"/><mask id="n" x="39.22" y="11.5" width="6.5" height="12.29" maskUnits="userSpaceOnUse"><polygon points="42.47 11.5 39.22 13.37 39.22 21.81 42.47 23.69 45.72 21.81 45.72 13.37 42.47 11.5" fill="url(#o)"/></mask><linearGradient id="p" x1="39.22" y1="18.63" x2="42.47" y2="18.63" xlink:href="#j"/><linearGradient id="r" x1="28.39" y1="10.23" x2="28.39" y2="22.42" xlink:href="#d"/><mask id="q" x="25.14" y="10.23" width="6.5" height="12.29" maskUnits="userSpaceOnUse"><polygon points="28.39 10.23 25.14 12.11 25.14 20.55 28.39 22.42 31.64 20.55 31.64 12.11 28.39 10.23" fill="url(#r)"/></mask><linearGradient id="s" x1="25.14" y1="17.36" x2="28.39" y2="17.36" xlink:href="#j"/><linearGradient id="u" x1="37.93" y1="19.18" x2="37.93" y2="38.68" xlink:href="#d"/><mask id="t" x="34.68" y="18.81" width="6.5" height="19.87" maskUnits="userSpaceOnUse"><polygon points="37.93 19.18 34.68 21.05 34.68 36.8 37.93 38.68 41.18 36.8 41.18 21.05 37.93 19.18" fill="url(#u)"/></mask><linearGradient id="v" x1="34.68" y1="20.69" x2="41.18" y2="20.69" xlink:href="#e"/><linearGradient id="w" x1="34.68" y1="29.5" x2="37.93" y2="29.5" xlink:href="#e"/><linearGradient id="x" x1="37.93" y1="29.5" x2="41.18" y2="29.5" xlink:href="#g"/><linearGradient id="z" x1="37.93" y1="40.01" x2="37.93" y2="57.21" xlink:href="#d"/><mask id="y" x="34.68" y="40.01" width="6.5" height="17.29" maskUnits="userSpaceOnUse"><polygon points="37.93 40.01 34.68 41.88 34.68 55.33 37.93 57.21 41.18 55.33 41.18 41.88 37.93 40.01" fill="url(#z)"/></mask><linearGradient id="aa" x1="34.68" y1="49.64" x2="37.93" y2="49.64" xlink:href="#j"/><linearGradient id="ac" x1="21.46" y1="-.1" x2="21.46" y2="12.1" xlink:href="#d"/><mask id="ab" x="18.21" y="-.1" width="6.5" height="12.29" maskUnits="userSpaceOnUse"><polygon points="21.46 -.1 18.21 1.78 18.21 10.22 21.46 12.1 24.7 10.22 24.7 1.78 21.46 -.1" fill="url(#ac)"/></mask><linearGradient id="ad" x1="18.21" y1="7.03" x2="21.46" y2="7.03" xlink:href="#j"/><linearGradient id="ae" x1="-2501.41" y1="4848.84" x2="-2468.24" y2="4848.84" gradientTransform="translate(-1646.75 -5145.84) rotate(-45)" xlink:href="#g"/><linearGradient id="af" x1="-2500.93" y1="4848.21" x2="-2467.76" y2="4848.21" gradientTransform="translate(-1646.75 -5145.84) rotate(-45)" gradientUnits="userSpaceOnUse"><stop offset="0" stop-color="#5b439a"/><stop offset="1" stop-color="#502772"/></linearGradient><linearGradient id="ag" x1="-2500.45" y1="4847.58" x2="-2467.28" y2="4847.58" gradientTransform="translate(-1646.75 -5145.84) rotate(-45)" xlink:href="#e"/><linearGradient id="ah" x1="-7313.41" y1="1348.03" x2="-7313.41" y2="1346.89" gradientTransform="translate(4848.69 5687.96) rotate(60)" gradientUnits="userSpaceOnUse"><stop offset="0" stop-color="#fff"/><stop offset=".19" stop-color="#6e4d9e"/><stop offset=".63" stop-color="#6e4d9e"/><stop offset=".93" stop-color="#6e4d9e" stop-opacity="0"/></linearGradient><linearGradient id="ai" x1="-7313.49" y1="1358.92" x2="-7313.49" y2="1357.78" xlink:href="#ah"/><linearGradient id="aj" x1="-7313.56" y1="1369.82" x2="-7313.56" y2="1368.67" xlink:href="#ah"/><linearGradient id="ak" x1="-7311.5" y1="1346.93" x2="-7311.5" y2="1345.79" xlink:href="#ah"/><linearGradient id="al" x1="-7311.57" y1="1357.83" x2="-7311.57" y2="1356.68" xlink:href="#ah"/><linearGradient id="am" x1="-7311.64" y1="1368.72" x2="-7311.64" y2="1367.58" xlink:href="#ah"/><linearGradient id="an" x1="-7315.34" y1="1349.14" x2="-7315.34" y2="1348" xlink:href="#ah"/><linearGradient id="ao" x1="-7315.41" y1="1360.03" x2="-7315.41" y2="1358.89" xlink:href="#ah"/><linearGradient id="ap" x1="-7315.49" y1="1370.93" x2="-7315.49" y2="1369.78" xlink:href="#ah"/><linearGradient id="aq" x1="-7309.58" y1="1345.84" x2="-7309.58" y2="1344.7" xlink:href="#ah"/><linearGradient id="ar" x1="-7309.65" y1="1356.73" x2="-7309.65" y2="1355.59" xlink:href="#ah"/><linearGradient id="as" x1="-7309.72" y1="1367.63" x2="-7309.72" y2="1366.48" xlink:href="#ah"/><linearGradient id="at" x1="-7307.66" y1="1344.74" x2="-7307.66" y2="1343.6" xlink:href="#ah"/><linearGradient id="au" x1="-7307.73" y1="1355.64" x2="-7307.73" y2="1354.49" xlink:href="#ah"/><linearGradient id="av" x1="-7307.8" y1="1366.53" x2="-7307.8" y2="1365.39" xlink:href="#ah"/><linearGradient id="aw" x1="-7305.74" y1="1343.65" x2="-7305.74" y2="1342.51" xlink:href="#ah"/><linearGradient id="ax" x1="-7305.81" y1="1354.54" x2="-7305.81" y2="1353.4" xlink:href="#ah"/><linearGradient id="ay" x1="-7305.88" y1="1365.44" x2="-7305.88" y2="1364.29" xlink:href="#ah"/><linearGradient id="az" x1="-7303.82" y1="1342.55" x2="-7303.82" y2="1341.41" xlink:href="#ah"/><linearGradient id="ba" x1="-7303.89" y1="1353.45" x2="-7303.89" y2="1352.3" xlink:href="#ah"/><linearGradient id="bb" x1="-7303.96" y1="1364.34" x2="-7303.96" y2="1363.2" xlink:href="#ah"/><linearGradient id="bc" x1="-7301.9" y1="1341.46" x2="-7301.9" y2="1340.32" xlink:href="#ah"/><linearGradient id="bd" x1="-7301.97" y1="1352.35" x2="-7301.97" y2="1351.21" xlink:href="#ah"/><linearGradient id="be" x1="-7302.04" y1="1363.25" x2="-7302.04" y2="1362.1" xlink:href="#ah"/><linearGradient id="bf" x1="-7299.98" y1="1340.36" x2="-7299.98" y2="1339.22" xlink:href="#ah"/><linearGradient id="bg" x1="-7300.05" y1="1351.26" x2="-7300.05" y2="1350.11" xlink:href="#ah"/><linearGradient id="bh" x1="-7300.12" y1="1362.15" x2="-7300.12" y2="1361.01" xlink:href="#ah"/><linearGradient id="bi" x1="-7298.06" y1="1339.27" x2="-7298.06" y2="1338.13" xlink:href="#ah"/><linearGradient id="bj" x1="-7298.13" y1="1350.16" x2="-7298.13" y2="1349.02" xlink:href="#ah"/><linearGradient id="bk" x1="-7298.21" y1="1361.06" x2="-7298.21" y2="1359.91" xlink:href="#ah"/><linearGradient id="bl" x1="-7296.14" y1="1338.17" x2="-7296.14" y2="1337.03" xlink:href="#ah"/><linearGradient id="bm" x1="-7296.21" y1="1349.07" x2="-7296.21" y2="1347.92" xlink:href="#ah"/><linearGradient id="bn" x1="-7296.29" y1="1359.96" x2="-7296.29" y2="1358.82" xlink:href="#ah"/><linearGradient id="bo" x1="-7294.22" y1="1337.08" x2="-7294.22" y2="1335.94" xlink:href="#ah"/><linearGradient id="bp" x1="-7294.3" y1="1347.97" x2="-7294.3" y2="1346.83" xlink:href="#ah"/><linearGradient id="bq" x1="-7294.37" y1="1358.87" x2="-7294.37" y2="1357.72" xlink:href="#ah"/><linearGradient id="br" x1="29.66" y1="16.7" x2="36.16" y2="16.7" xlink:href="#g"/><linearGradient id="bs" x1="30.02" y1="16.84" x2="36.52" y2="16.84" xlink:href="#e"/><linearGradient id="bt" x1="30.29" y1="3868.48" x2="36.79" y2="3868.48" gradientTransform="translate(0 -3832.04) rotate(-30) scale(1.15 .87) skewX(-23.41)" xlink:href="#j"/><linearGradient id="bu" x1="-12717.23" y1="3868.3" x2="-12714.43" y2="3868.3" gradientTransform="translate(-12682.29 3490.89) rotate(150) scale(1.15 -.87) skewX(23.41)" xlink:href="#g"/><linearGradient id="bv" x1="28.85" y1="5.7" x2="35.35" y2="5.7" xlink:href="#g"/><linearGradient id="bw" x1="29.22" y1="5.85" x2="35.72" y2="5.85" xlink:href="#e"/><linearGradient id="bx" x1="29.53" y1="3720.23" x2="36.03" y2="3720.23" gradientTransform="translate(0 -3695.2) rotate(-30) scale(1.15 .87) skewX(-23.41)" xlink:href="#j"/><linearGradient id="by" x1="30.76" y1="3721.38" x2="31.61" y2="3721.38" gradientTransform="translate(0 -3695.2) rotate(-30) scale(1.15 .87) skewX(-23.41)" xlink:href="#g"/><linearGradient id="bz" x1="32.18" y1="3721.09" x2="33.03" y2="3721.09" gradientTransform="translate(0 -3695.2) rotate(-30) scale(1.15 .87) skewX(-23.41)" xlink:href="#g"/><linearGradient id="ca" x1="33.6" y1="3720.77" x2="34.45" y2="3720.77" gradientTransform="translate(0 -3695.2) rotate(-30) scale(1.15 .87) skewX(-23.41)" xlink:href="#g"/><linearGradient id="cb" x1="30.78" y1="3718.87" x2="34.22" y2="3718.87" gradientTransform="translate(0 -3695.2) rotate(-30) scale(1.15 .87) skewX(-23.41)" gradientUnits="userSpaceOnUse"><stop offset="0" stop-color="#f9e243"/><stop offset="1" stop-color="#f9ac7e"/></linearGradient><linearGradient id="cc" x1="10" y1="3914.41" x2="25.28" y2="3914.41" gradientTransform="translate(0 -3883.75) rotate(-30) scale(1.15 .87) skewX(-23.41)" xlink:href="#g"/><linearGradient id="cd" x1="11.19" y1="3915.48" x2="26.47" y2="3915.48" gradientTransform="translate(0 -3883.75) rotate(-30) scale(1.15 .87) skewX(-23.41)" xlink:href="#e"/><linearGradient id="ce" x1="12.38" y1="3916.54" x2="27.66" y2="3916.54" gradientTransform="translate(0 -3883.75) rotate(-30) scale(1.15 .87) skewX(-23.41)" xlink:href="#j"/><linearGradient id="cf" x1="14.6" y1="3498.46" x2="14.6" y2="3491.67" gradientTransform="translate(0 -3456.1) rotate(-30) scale(1.15 .87) skewX(-23.41)" xlink:href="#g"/><linearGradient id="cg" x1="17.32" y1="3498.68" x2="17.32" y2="3494.15" gradientTransform="translate(0 -3456.1) rotate(-30) scale(1.15 .87) skewX(-23.41)" xlink:href="#g"/><linearGradient id="ch" x1="20.04" y1="3498.56" x2="20.04" y2="3492.79" gradientTransform="translate(0 -3456.1) rotate(-30) scale(1.15 .87) skewX(-23.41)" xlink:href="#g"/><linearGradient id="ci" x1="22.76" y1="3498.77" x2="22.76" y2="3495.16" gradientTransform="translate(0 -3456.1) rotate(-30) scale(1.15 .87) skewX(-23.41)" xlink:href="#g"/><linearGradient id="cj" x1="25.48" y1="3498.91" x2="25.48" y2="3496.73" gradientTransform="translate(0 -3456.1) rotate(-30) scale(1.15 .87) skewX(-23.41)" xlink:href="#g"/><linearGradient id="ck" x1="20.66" y1="3478.56" x2="20.66" y2="3478.17" gradientTransform="translate(0 -3456.1) rotate(-30) scale(1.15 .87) skewX(-23.41)" xlink:href="#g"/><linearGradient id="cl" x1="21.23" y1="3483.67" x2="21.23" y2="3482.96" gradientTransform="translate(0 -3456.1) rotate(-30) scale(1.15 .87) skewX(-23.41)" xlink:href="#g"/><linearGradient id="cm" x1="21.23" y1="3480.16" x2="21.23" y2="3479.45" gradientTransform="translate(0 -3456.1) rotate(-30) scale(1.15 .87) skewX(-23.41)" xlink:href="#g"/><linearGradient id="cn" x1="22.8" y1="3484.31" x2="22.8" y2="3484.12" gradientTransform="translate(0 -3456.1) rotate(-30) scale(1.15 .87) skewX(-23.41)" xlink:href="#g"/><linearGradient id="co" x1="21.93" y1="3484.96" x2="21.93" y2="3484.76" gradientTransform="translate(0 -3456.1) rotate(-30) scale(1.15 .87) skewX(-23.41)" xlink:href="#g"/><linearGradient id="cp" x1="22.47" y1="3485.61" x2="22.47" y2="3485.41" gradientTransform="translate(0 -3456.1) rotate(-30) scale(1.15 .87) skewX(-23.41)" xlink:href="#g"/><linearGradient id="cq" x1="20.85" y1="3486.25" x2="20.85" y2="3486.06" gradientTransform="translate(0 -3456.1) rotate(-30) scale(1.15 .87) skewX(-23.41)" xlink:href="#g"/><linearGradient id="cr" x1="21.99" y1="3486.9" x2="21.99" y2="3486.71" gradientTransform="translate(0 -3456.1) rotate(-30) scale(1.15 .87) skewX(-23.41)" xlink:href="#g"/><linearGradient id="cs" x1="15.35" y1="3697.23" x2="15.35" y2="3694.21" gradientTransform="translate(0 -3671.29) rotate(-30) scale(1.15 .87) skewX(-23.41)" xlink:href="#g"/><linearGradient id="ct" x1="13.82" y1="3917.93" x2="26.36" y2="3917.93" gradientTransform="translate(0 -3883.75) rotate(-30) scale(1.15 .87) skewX(-23.41)" xlink:href="#g"/><linearGradient id="cu" x1="13.55" y1="3912.49" x2="14.5" y2="3912.49" gradientTransform="translate(0 -3883.75) rotate(-30) scale(1.15 .87) skewX(-23.41)" xlink:href="#g"/><linearGradient id="cv" x1="13.75" y1="3912.11" x2="13.83" y2="3912.11" gradientTransform="translate(0 -3883.75) rotate(-30) scale(1.15 .87) skewX(-23.41)" xlink:href="#g"/><linearGradient id="cw" x1="-13229.46" y1="5918.29" x2="-13229.46" y2="5906.17" gradientTransform="translate(-13197.02 5943.96) rotate(-180)" xlink:href="#e"/><linearGradient id="cx" x1="44.96" y1="5918.29" x2="44.96" y2="5906.17" gradientTransform="translate(-8.47 5943.96) scale(1 -1)" xlink:href="#g"/><linearGradient id="cy" x1="-13231.48" y1="28.53" x2="-13231.48" y2="23.55" gradientTransform="translate(-13197.02) rotate(-180) scale(1 -1)" gradientUnits="userSpaceOnUse"><stop offset="0" stop-color="#babcde"/><stop offset="1" stop-color="#39308a"/></linearGradient><linearGradient id="cz" x1="-13231.48" y1="27.6" x2="-13231.48" y2="24.47" gradientTransform="translate(-13197.02) rotate(-180) scale(1 -1)" xlink:href="#j"/><linearGradient id="da" x1="-13223.24" y1="5912.4" x2="-13223.24" y2="5902.65" gradientTransform="translate(-13197.02 5943.96) rotate(-180)" xlink:href="#e"/><linearGradient id="db" x1="38.74" y1="5912.4" x2="38.74" y2="5902.65" gradientTransform="translate(-8.47 5943.96) scale(1 -1)" xlink:href="#g"/><linearGradient id="dc" x1="-13225.26" y1="34.35" x2="-13225.26" y2="29.37" xlink:href="#cy"/><linearGradient id="dd" x1="-10956.21" y1="40.47" x2="-10954.98" y2="39.76" gradientTransform="translate(-10926.58) rotate(-180) scale(1 -1)" xlink:href="#cy"/><linearGradient id="de" x1="-10955.82" y1="41.13" x2="-10954.6" y2="40.43" gradientTransform="translate(-10926.58) rotate(-180) scale(1 -1)" xlink:href="#e"/><linearGradient id="df" x1="-10956.39" y1="41.01" x2="-10955.57" y2="40.54" gradientTransform="translate(-10926.58) rotate(-180) scale(1 -1)" xlink:href="#g"/><linearGradient id="dg" x1="-10957.31" y1="38.76" x2="-10956.08" y2="38.05" gradientTransform="translate(-10926.58) rotate(-180) scale(1 -1)" xlink:href="#cy"/><linearGradient id="dh" x1="-10956.92" y1="39.42" x2="-10955.7" y2="38.71" gradientTransform="translate(-10926.58) rotate(-180) scale(1 -1)" xlink:href="#e"/><linearGradient id="di" x1="-10957.49" y1="39.3" x2="-10956.67" y2="38.83" gradientTransform="translate(-10926.58) rotate(-180) scale(1 -1)" xlink:href="#g"/><linearGradient id="dj" x1="-10958.4" y1="37.04" x2="-10957.18" y2="36.34" gradientTransform="translate(-10926.58) rotate(-180) scale(1 -1)" xlink:href="#cy"/><linearGradient id="dk" x1="-10958.02" y1="37.71" x2="-10956.8" y2="37" gradientTransform="translate(-10926.58) rotate(-180) scale(1 -1)" xlink:href="#e"/><linearGradient id="dl" x1="-10958.58" y1="37.59" x2="-10957.77" y2="37.12" gradientTransform="translate(-10926.58) rotate(-180) scale(1 -1)" xlink:href="#g"/><linearGradient id="dm" x1="-10959.5" y1="35.33" x2="-10958.28" y2="34.62" gradientTransform="translate(-10926.58) rotate(-180) scale(1 -1)" xlink:href="#cy"/><linearGradient id="dn" x1="-10959.12" y1="36" x2="-10957.89" y2="35.29" gradientTransform="translate(-10926.58) rotate(-180) scale(1 -1)" xlink:href="#e"/><linearGradient id="do" x1="-10959.68" y1="35.88" x2="-10958.87" y2="35.41" gradientTransform="translate(-10926.58) rotate(-180) scale(1 -1)" xlink:href="#g"/><linearGradient id="dp" x1="-10958.4" y1="34.62" x2="-10957.18" y2="33.91" gradientTransform="translate(-10926.58) rotate(-180) scale(1 -1)" xlink:href="#cy"/><linearGradient id="dq" x1="-10958.02" y1="35.28" x2="-10956.8" y2="34.58" gradientTransform="translate(-10926.58) rotate(-180) scale(1 -1)" xlink:href="#e"/><linearGradient id="dr" x1="-10958.58" y1="35.17" x2="-10957.77" y2="34.69" gradientTransform="translate(-10926.58) rotate(-180) scale(1 -1)" xlink:href="#g"/><linearGradient id="ds" x1="-10957.31" y1="33.9" x2="-10956.08" y2="33.2" gradientTransform="translate(-10926.58) rotate(-180) scale(1 -1)" xlink:href="#cy"/><linearGradient id="dt" x1="-10956.92" y1="34.57" x2="-10955.7" y2="33.86" gradientTransform="translate(-10926.58) rotate(-180) scale(1 -1)" xlink:href="#e"/><linearGradient id="du" x1="-10957.49" y1="34.45" x2="-10956.67" y2="33.98" gradientTransform="translate(-10926.58) rotate(-180) scale(1 -1)" xlink:href="#g"/><linearGradient id="dv" x1="-13231.52" y1="26.94" x2="-13231.52" y2="20.98" gradientTransform="translate(-13197.02) rotate(-180) scale(1 -1)" gradientUnits="userSpaceOnUse"><stop offset="0" stop-color="#fff"/><stop offset=".53" stop-color="#fff" stop-opacity=".5"/><stop offset="1" stop-color="#fff" stop-opacity="0"/></linearGradient><linearGradient id="dw" x1="2360.5" y1="9629.98" x2="2360.5" y2="9628.67" gradientTransform="translate(-2695.39 -9500.37) rotate(-2.21)" gradientUnits="userSpaceOnUse"><stop offset="0" stop-color="#fff"/><stop offset=".19" stop-color="#154ca0"/><stop offset=".63" stop-color="#154ca0"/><stop offset=".93" stop-color="#154ca0" stop-opacity="0"/></linearGradient><linearGradient id="dx" x1="2361.16" y1="9628.86" x2="2361.16" y2="9627.55" xlink:href="#dw"/><linearGradient id="dy" x1="2361.73" y1="9630.44" x2="2361.73" y2="9629.13" xlink:href="#dw"/><linearGradient id="dz" x1="2362.38" y1="9629.37" x2="2362.38" y2="9628.06" xlink:href="#dw"/><linearGradient id="ea" x1="2363.1" y1="9627.77" x2="2363.1" y2="9626.47" xlink:href="#dw"/><linearGradient id="eb" x1="2362.96" y1="9631.46" x2="2362.96" y2="9630.15" xlink:href="#dw"/><linearGradient id="ec" x1="2363.65" y1="9629.07" x2="2363.65" y2="9627.77" xlink:href="#dw"/><linearGradient id="ed" x1="2363.5" y1="9633.04" x2="2363.5" y2="9631.74" xlink:href="#dw"/><linearGradient id="ee" x1="35.15" y1="36.91" x2="35.15" y2="32.08" xlink:href="#e"/><linearGradient id="ef" x1="36.16" y1="36.35" x2="36.16" y2="33.21" xlink:href="#e"/><linearGradient id="eg" x1="37.18" y1="35.78" x2="37.18" y2="33.65" xlink:href="#e"/><linearGradient id="eh" x1="35.15" y1="36.97" x2="35.15" y2="36.22" gradientTransform="matrix(1, 0, 0, 1, 0, 0)" xlink:href="#cy"/><linearGradient id="ei" x1="36.16" y1="36.38" x2="36.16" y2="35.63" gradientTransform="matrix(1, 0, 0, 1, 0, 0)" xlink:href="#cy"/><linearGradient id="ej" x1="37.18" y1="35.79" x2="37.18" y2="35.05" gradientTransform="matrix(1, 0, 0, 1, 0, 0)" xlink:href="#cy"/><linearGradient id="ek" x1="-13226.03" y1="41.27" x2="-13226.03" y2="39.45" xlink:href="#dv"/><linearGradient id="el" x1="-13228.23" y1="37.84" x2="-13228.23" y2="36.02" xlink:href="#dv"/><linearGradient id="em" x1="-13228.23" y1="35.42" x2="-13228.23" y2="33.6" xlink:href="#dv"/><linearGradient id="en" x1="-12467.16" y1="38.67" x2="-12465.97" y2="38.67" gradientTransform="translate(-12439.34) rotate(-180) scale(1 -1)" xlink:href="#e"/><linearGradient id="eo" x1="-12467.16" y1="39.02" x2="-12465.97" y2="39.02" gradientTransform="translate(-12439.34) rotate(-180) scale(1 -1)" xlink:href="#cy"/><linearGradient id="ep" x1="-13217.02" y1="5907.71" x2="-13217.02" y2="5899.1" gradientTransform="translate(-13197.02 5943.96) rotate(-180)" xlink:href="#e"/><linearGradient id="eq" x1="32.52" y1="5907.71" x2="32.52" y2="5899.1" gradientTransform="translate(-8.47 5943.96) scale(1 -1)" xlink:href="#g"/><linearGradient id="er" x1="-13219.05" y1="39" x2="-13219.05" y2="34.02" xlink:href="#cy"/><linearGradient id="es" x1="23.73" y1="42.44" x2="24.81" y2="42.44" xlink:href="#e"/><linearGradient id="et" x1="24.56" y1="42.13" x2="24.81" y2="42.13" gradientTransform="matrix(1, 0, 0, 1, 0, 0)" xlink:href="#cy"/><linearGradient id="eu" x1="-12467.16" y1="35.12" x2="-12465.97" y2="35.12" gradientTransform="translate(-12439.34) rotate(-180) scale(1 -1)" xlink:href="#e"/><linearGradient id="ev" x1="-12467.16" y1="35.46" x2="-12465.97" y2="35.46" gradientTransform="translate(-12439.34) rotate(-180) scale(1 -1)" xlink:href="#cy"/><linearGradient id="ew" x1="-12465.1" y1="34.04" x2="-12463.91" y2="34.04" gradientTransform="translate(-12439.34) rotate(-180) scale(1 -1)" xlink:href="#e"/><linearGradient id="ex" x1="-12465.1" y1="34.38" x2="-12463.91" y2="34.38" gradientTransform="translate(-12439.34) rotate(-180) scale(1 -1)" xlink:href="#cy"/><linearGradient id="ey" x1="25.94" y1="41.95" x2="40.77" y2="41.95" gradientTransform="matrix(1, 0, 0, 1, 0, 0)" xlink:href="#cy"/><linearGradient id="ez" x1="25.94" y1="43.57" x2="40.77" y2="43.57" xlink:href="#g"/><linearGradient id="fa" x1="25.94" y1="43.26" x2="40.77" y2="43.26" xlink:href="#j"/><linearGradient id="fb" x1="25.94" y1="43.78" x2="40.77" y2="43.78" xlink:href="#j"/><linearGradient id="fc" x1="25.94" y1="40.51" x2="40.77" y2="40.51" gradientTransform="matrix(1, 0, 0, 1, 0, 0)" xlink:href="#cy"/><linearGradient id="fd" x1="25.94" y1="42.13" x2="40.77" y2="42.13" xlink:href="#g"/><linearGradient id="fe" x1="25.94" y1="41.83" x2="40.77" y2="41.83" xlink:href="#j"/><linearGradient id="ff" x1="25.94" y1="42.34" x2="40.77" y2="42.34" xlink:href="#j"/><linearGradient id="fg" x1="-13372.66" y1="11867.53" x2="-13372.66" y2="11867.17" gradientTransform="translate(-16932.8 5687.96) rotate(120) scale(1 -1)" xlink:href="#ah"/><linearGradient id="fh" x1="-13372.14" y1="11867.24" x2="-13372.14" y2="11866.87" gradientTransform="translate(-16932.8 5687.96) rotate(120) scale(1 -1)" xlink:href="#ah"/><linearGradient id="fi" x1="-13372.62" y1="11869.42" x2="-13372.62" y2="11869.06" gradientTransform="translate(-16932.8 5687.96) rotate(120) scale(1 -1)" xlink:href="#ah"/><linearGradient id="fj" x1="-13372.1" y1="11869.13" x2="-13372.1" y2="11868.76" gradientTransform="translate(-16932.8 5687.96) rotate(120) scale(1 -1)" xlink:href="#ah"/><linearGradient id="fk" x1="-13376.78" y1="11870.06" x2="-13376.78" y2="11869.69" gradientTransform="translate(-16932.8 5687.96) rotate(120) scale(1 -1)" xlink:href="#ah"/><linearGradient id="fl" x1="-13376.27" y1="11869.76" x2="-13376.27" y2="11869.39" gradientTransform="translate(-16932.8 5687.96) rotate(120) scale(1 -1)" xlink:href="#ah"/><linearGradient id="fm" x1="-13376.74" y1="11871.95" x2="-13376.74" y2="11871.58" gradientTransform="translate(-16932.8 5687.96) rotate(120) scale(1 -1)" xlink:href="#ah"/><linearGradient id="fn" x1="-13376.23" y1="11871.65" x2="-13376.23" y2="11871.28" gradientTransform="translate(-16932.8 5687.96) rotate(120) scale(1 -1)" xlink:href="#ah"/><linearGradient id="fo" x1="-13224.91" y1="5901.46" x2="-13224.91" y2="5899.63" gradientTransform="translate(-13197.02 5943.96) rotate(-180)" gradientUnits="userSpaceOnUse"><stop offset="0" stop-color="#552d8a"/><stop offset="1" stop-color="#576cb2"/></linearGradient><linearGradient id="fp" x1="38.8" x2="38.8" gradientTransform="translate(-8.47 5943.96) scale(1 -1)" xlink:href="#fo"/><linearGradient id="fq" x1="-13226.13" y1="44.06" x2="-13226.13" y2="41.06" xlink:href="#cy"/><linearGradient id="fr" x1="-13225.25" y1="5901.5" x2="-13225.25" y2="5900.3" gradientTransform="translate(-13197.02 5943.96) rotate(-180)" xlink:href="#cy"/><linearGradient id="fs" x1="38.46" y1="5901.5" x2="38.46" y2="5900.3" gradientTransform="translate(-8.47 5943.96) scale(1 -1)" xlink:href="#cy"/><linearGradient id="ft" x1="-13226.13" y1="43.58" x2="-13226.13" y2="41.42" gradientTransform="translate(-13197.02) rotate(-180) scale(1 -1)" xlink:href="#g"/><linearGradient id="fu" x1="-13229.03" y1="5903.79" x2="-13229.03" y2="5901.96" xlink:href="#fo"/><linearGradient id="fv" x1="42.92" y1="5903.79" x2="42.92" y2="5901.96" gradientTransform="translate(-8.47 5943.96) scale(1 -1)" xlink:href="#fo"/><linearGradient id="fw" x1="-13230.25" y1="41.73" x2="-13230.25" y2="38.73" xlink:href="#cy"/><linearGradient id="fx" x1="-13229.37" y1="5903.82" x2="-13229.37" y2="5902.62" gradientTransform="translate(-13197.02 5943.96) rotate(-180)" xlink:href="#cy"/><linearGradient id="fy" x1="42.58" y1="5903.82" x2="42.58" y2="5902.62" gradientTransform="translate(-8.47 5943.96) scale(1 -1)" xlink:href="#cy"/><linearGradient id="fz" x1="-13230.25" y1="41.26" x2="-13230.25" y2="39.09" gradientTransform="translate(-13197.02) rotate(-180) scale(1 -1)" xlink:href="#g"/><linearGradient id="ga" x1="-13233.16" y1="5906.12" x2="-13233.16" y2="5904.29" xlink:href="#fo"/><linearGradient id="gb" x1="47.05" y1="5906.12" x2="47.05" y2="5904.29" gradientTransform="translate(-8.47 5943.96) scale(1 -1)" xlink:href="#fo"/><linearGradient id="gc" x1="-13234.37" y1="39.4" x2="-13234.37" y2="36.4" xlink:href="#cy"/><linearGradient id="gd" x1="-13233.5" y1="5906.15" x2="-13233.5" y2="5904.95" gradientTransform="translate(-13197.02 5943.96) rotate(-180)" xlink:href="#cy"/><linearGradient id="ge" x1="46.71" y1="5906.15" x2="46.71" y2="5904.95" gradientTransform="translate(-8.47 5943.96) scale(1 -1)" xlink:href="#cy"/><linearGradient id="gf" x1="-13234.37" y1="38.93" x2="-13234.37" y2="36.76" gradientTransform="translate(-13197.02) rotate(-180) scale(1 -1)" xlink:href="#g"/><linearGradient id="gg" x1="5.61" y1="40.15" x2="8.35" y2="40.15" xlink:href="#e"/><linearGradient id="gh" x1="8.35" y1="40.15" x2="11.09" y2="40.15" xlink:href="#g"/><linearGradient id="gi" x1="5.61" y1="37.86" x2="11.09" y2="37.86" gradientTransform="matrix(1, 0, 0, 1, 0, 0)" xlink:href="#cy"/><linearGradient id="gj" x1="6.48" y1="39.06" x2="6.48" y2="39.98" gradientUnits="userSpaceOnUse"><stop offset="0" stop-color="#fcb628"/><stop offset="1" stop-color="#f48443"/></linearGradient><linearGradient id="gk" x1="7.21" y1="41.42" x2="7.94" y2="41.42" xlink:href="#e"/><linearGradient id="gl" x1="7.21" y1="41.21" x2="7.38" y2="41.21" gradientTransform="matrix(1, 0, 0, 1, 0, 0)" xlink:href="#cy"/><linearGradient id="gm" x1="-8181.22" y1="39.34" x2="-8181.22" y2="40.68" gradientTransform="translate(-8170.97) rotate(-180) scale(1 -1)" xlink:href="#gj"/><linearGradient id="gn" x1="-8180.39" y1="39.8" x2="-8180.39" y2="41.14" gradientTransform="translate(-8170.97) rotate(-180) scale(1 -1)" xlink:href="#gj"/><linearGradient id="go" x1="5.61" y1="36.14" x2="8.35" y2="36.14" xlink:href="#e"/><linearGradient id="gp" x1="8.35" y1="36.14" x2="11.09" y2="36.14" xlink:href="#g"/><linearGradient id="gq" x1="5.61" y1="33.85" x2="11.09" y2="33.85" gradientTransform="matrix(1, 0, 0, 1, 0, 0)" xlink:href="#cy"/><linearGradient id="gr" y1="35.05" y2="35.96" xlink:href="#gj"/><linearGradient id="gs" x1="-8181.22" y1="35.33" x2="-8181.22" y2="36.67" gradientTransform="translate(-8170.97) rotate(-180) scale(1 -1)" xlink:href="#gj"/><linearGradient id="gt" x1="-8180.39" y1="35.79" x2="-8180.39" y2="37.13" gradientTransform="translate(-8170.97) rotate(-180) scale(1 -1)" xlink:href="#gj"/><linearGradient id="gu" x1="5.61" y1="32.12" x2="8.35" y2="32.12" xlink:href="#e"/><linearGradient id="gv" x1="8.35" y1="32.12" x2="11.09" y2="32.12" xlink:href="#g"/><linearGradient id="gw" x1="5.61" y1="29.83" x2="11.09" y2="29.83" gradientTransform="matrix(1, 0, 0, 1, 0, 0)" xlink:href="#cy"/><linearGradient id="gx" y1="31.03" y2="31.95" xlink:href="#gj"/><linearGradient id="gy" x1="-8181.22" y1="31.31" x2="-8181.22" y2="32.65" gradientTransform="translate(-8170.97) rotate(-180) scale(1 -1)" xlink:href="#gj"/><linearGradient id="gz" x1="-8180.39" y1="31.77" x2="-8180.39" y2="33.11" gradientTransform="translate(-8170.97) rotate(-180) scale(1 -1)" xlink:href="#gj"/><linearGradient id="ha" x1="-13205.36" y1="39.21" x2="-13205.36" y2="35.17" xlink:href="#dv"/><linearGradient id="hb" x1="-13205.36" y1="34.99" x2="-13205.36" y2="30.96" xlink:href="#dv"/><linearGradient id="hc" x1="-13205.36" y1="30.97" x2="-13205.36" y2="26.94" xlink:href="#dv"/><linearGradient id="hd" x1="-13230.24" y1="40.61" x2="-13230.24" y2="38.23" xlink:href="#dv"/><linearGradient id="he" x1="-13234.37" y1="38.25" x2="-13234.37" y2="35.87" xlink:href="#dv"/><linearGradient id="hf" x1="-13226.09" y1="42.91" x2="-13226.09" y2="40.52" xlink:href="#dv"/><linearGradient id="hg" x1="-10947.94" y1="39.96" x2="-10944.88" y2="38.2" gradientTransform="translate(-10926.58) rotate(-180) scale(1 -1)" xlink:href="#cy"/><linearGradient id="hh" x1="-10947.55" y1="40.63" x2="-10944.5" y2="38.86" gradientTransform="translate(-10926.58) rotate(-180) scale(1 -1)" xlink:href="#e"/><linearGradient id="hi" x1="-10948.06" y1="40.48" x2="-10947.24" y2="40" gradientTransform="translate(-10926.58) rotate(-180) scale(1 -1)" xlink:href="#g"/><linearGradient id="hj" x1="-10947.17" y1="41.3" x2="-10944.11" y2="39.53" gradientTransform="translate(-10926.58) rotate(-180) scale(1 -1)" xlink:href="#cy"/><linearGradient id="hk" x1="-10946.79" y1="41.96" x2="-10943.73" y2="40.19" gradientTransform="translate(-10926.58) rotate(-180) scale(1 -1)" xlink:href="#e"/><linearGradient id="hl" x1="-10947.29" y1="41.81" x2="-10946.48" y2="41.34" gradientTransform="translate(-10926.58) rotate(-180) scale(1 -1)" xlink:href="#g"/><linearGradient id="hm" x1="-10946.41" y1="42.63" x2="-10943.35" y2="40.87" gradientTransform="translate(-10926.58) rotate(-180) scale(1 -1)" xlink:href="#cy"/><linearGradient id="hn" x1="-10946.02" y1="43.3" x2="-10942.96" y2="41.53" gradientTransform="translate(-10926.58) rotate(-180) scale(1 -1)" xlink:href="#e"/><linearGradient id="ho" x1="-10946.53" y1="43.15" x2="-10945.71" y2="42.67" gradientTransform="translate(-10926.58) rotate(-180) scale(1 -1)" xlink:href="#g"/><linearGradient id="hp" x1="-10945.64" y1="43.97" x2="-10942.58" y2="42.2" gradientTransform="translate(-10926.58) rotate(-180) scale(1 -1)" xlink:href="#cy"/><linearGradient id="hq" x1="-10945.26" y1="44.63" x2="-10942.2" y2="42.86" gradientTransform="translate(-10926.58) rotate(-180) scale(1 -1)" xlink:href="#e"/><linearGradient id="hr" x1="-10945.76" y1="44.48" x2="-10944.95" y2="44.01" gradientTransform="translate(-10926.58) rotate(-180) scale(1 -1)" xlink:href="#g"/><linearGradient id="hs" x1="-10944.87" y1="45.3" x2="-10941.82" y2="43.54" gradientTransform="translate(-10926.58) rotate(-180) scale(1 -1)" xlink:href="#cy"/><linearGradient id="ht" x1="-10944.49" y1="45.97" x2="-10941.43" y2="44.2" gradientTransform="translate(-10926.58) rotate(-180) scale(1 -1)" xlink:href="#e"/><linearGradient id="hu" x1="-10945" y1="45.82" x2="-10944.18" y2="45.34" gradientTransform="translate(-10926.58) rotate(-180) scale(1 -1)" xlink:href="#g"/><linearGradient id="hv" x1="-10944.11" y1="46.64" x2="-10941.05" y2="44.87" gradientTransform="translate(-10926.58) rotate(-180) scale(1 -1)" xlink:href="#cy"/><linearGradient id="hw" x1="-10943.73" y1="47.3" x2="-10940.67" y2="45.53" gradientTransform="translate(-10926.58) rotate(-180) scale(1 -1)" xlink:href="#e"/><linearGradient id="hx" x1="-10944.23" y1="47.15" x2="-10943.42" y2="46.68" gradientTransform="translate(-10926.58) rotate(-180) scale(1 -1)" xlink:href="#g"/><linearGradient id="hy" x1="27.1" y1="26.17" x2="28.77" y2="26.17" xlink:href="#e"/><linearGradient id="ia" x1="3.25" y1="37.04" x2="3.25" y2="49.23" xlink:href="#d"/><mask id="hz" x="0" y="37.04" width="6.5" height="12.29" maskUnits="userSpaceOnUse"><polygon points="3.25 37.04 0 38.92 0 47.36 3.25 49.23 6.5 47.36 6.5 38.92 3.25 37.04" fill="url(#ia)"/></mask><linearGradient id="ib" x1="0" y1="44.17" x2="3.25" y2="44.17" xlink:href="#j"/><linearGradient id="id" x1="13.44" y1="38.19" x2="13.44" y2="54.48" xlink:href="#d"/><mask id="ic" x="10.73" y="37.88" width="5.43" height="16.6" maskUnits="userSpaceOnUse"><polygon points="13.44 38.19 10.73 39.75 10.73 52.92 13.44 54.48 16.15 52.92 16.15 39.75 13.44 38.19" fill="url(#id)"/></mask><linearGradient id="ie" x1="10.73" y1="39.45" x2="16.15" y2="39.45" xlink:href="#e"/><linearGradient id="if" x1="10.73" y1="46.81" x2="13.44" y2="46.81" xlink:href="#e"/><linearGradient id="ig" x1="13.44" y1="46.81" x2="16.15" y2="46.81" xlink:href="#g"/><linearGradient id="ii" x1="45.06" y1="33.12" x2="45.06" y2="52.62" xlink:href="#d"/><mask id="ih" x="41.81" y="32.75" width="6.5" height="19.87" maskUnits="userSpaceOnUse"><polygon points="45.06 33.12 41.81 34.99 41.81 50.74 45.06 52.62 48.31 50.74 48.31 34.99 45.06 33.12" fill="url(#ii)"/></mask><linearGradient id="ij" x1="41.81" y1="34.63" x2="48.31" y2="34.63" xlink:href="#e"/><linearGradient id="ik" x1="41.81" y1="43.44" x2="45.06" y2="43.44" xlink:href="#e"/><linearGradient id="il" x1="45.06" y1="43.44" x2="48.31" y2="43.44" xlink:href="#g"/><linearGradient id="in" x1="23.22" y1="45.48" x2="23.22" y2="62.68" xlink:href="#d"/><mask id="im" x="19.97" y="45.48" width="6.5" height="17.29" maskUnits="userSpaceOnUse"><polygon points="23.22 45.48 19.97 47.36 19.97 60.81 23.22 62.68 26.47 60.81 26.47 47.36 23.22 45.48" fill="url(#in)"/></mask><linearGradient id="io" x1="19.97" y1="55.12" x2="23.22" y2="55.12" xlink:href="#j"/></defs><g mask="url(#c)"><g><polygon points="10.7 7.32 7.46 9.19 10.7 11.07 13.95 9.19 10.7 7.32" fill="url(#e)"/><polygon points="7.46 9.19 7.46 24.94 10.7 26.82 10.7 11.07 7.46 9.19" fill="url(#f)"/><polygon points="13.95 9.19 13.95 24.94 10.7 26.82 10.7 11.07 13.95 9.19" fill="url(#g)"/></g></g><g mask="url(#h)"><g><polygon points="4.19 20.36 .95 22.24 4.19 24.12 7.44 22.24 4.19 20.36" fill="#a7dde7"/><polygon points=".95 22.24 .95 37.99 4.19 39.87 4.19 24.12 .95 22.24" fill="url(#j)"/><polygon points="7.44 22.24 7.44 37.99 4.19 39.87 4.19 24.12 7.44 22.24" fill="#2f4298"/></g></g><g mask="url(#k)"><g><polygon points="46.68 25.17 43.43 27.04 46.68 28.92 49.93 27.04 46.68 25.17" fill="#a7dde7"/><polygon points="43.43 27.04 43.43 35.48 46.68 37.36 46.68 28.92 43.43 27.04" fill="url(#m)"/><polygon points="49.93 27.04 49.93 35.48 46.68 37.36 46.68 28.92 49.93 27.04" fill="#2f4298"/></g></g><g mask="url(#n)"><g><polygon points="42.47 11.59 39.22 13.47 42.47 15.35 45.72 13.47 42.47 11.59" fill="#a7dde7"/><polygon points="39.22 13.47 39.22 21.91 42.47 23.79 42.47 15.35 39.22 13.47" fill="url(#p)"/><polygon points="45.72 13.47 45.72 21.91 42.47 23.79 42.47 15.35 45.72 13.47" fill="#2f4298"/></g></g><g mask="url(#q)"><g><polygon points="28.39 10.33 25.14 12.2 28.39 14.08 31.64 12.2 28.39 10.33" fill="#a7dde7"/><polygon points="25.14 12.2 25.14 20.64 28.39 22.52 28.39 14.08 25.14 12.2" fill="url(#s)"/><polygon points="31.64 12.2 31.64 20.64 28.39 22.52 28.39 14.08 31.64 12.2" fill="#2f4298"/></g></g><g mask="url(#t)"><g><polygon points="37.93 18.81 34.68 20.69 37.93 22.56 41.18 20.69 37.93 18.81" fill="url(#v)"/><polygon points="34.68 20.69 34.68 36.44 37.93 38.31 37.93 22.56 34.68 20.69" fill="url(#w)"/><polygon points="41.18 20.69 41.18 36.44 37.93 38.31 37.93 22.56 41.18 20.69" fill="url(#x)"/></g></g><g mask="url(#y)"><g><polygon points="37.93 40.1 34.68 41.98 37.93 43.86 41.18 41.98 37.93 40.1" fill="#a7dde7"/><polygon points="34.68 41.98 34.68 55.43 37.93 57.3 37.93 43.86 34.68 41.98" fill="url(#aa)"/><polygon points="41.18 41.98 41.18 55.43 37.93 57.3 37.93 43.86 41.18 41.98" fill="#2f4298"/></g></g><g mask="url(#ab)"><g><polygon points="21.46 0 18.21 1.88 21.46 3.75 24.7 1.88 21.46 0" fill="#a7dde7"/><polygon points="18.21 1.88 18.21 10.32 21.46 12.19 21.46 3.75 18.21 1.88" fill="url(#ad)"/><polygon points="24.7 1.88 24.7 10.32 21.46 12.19 21.46 3.75 24.7 1.88" fill="#2f4298"/></g></g><g><g><path d="m44.65,36.31c2.71,1.74,2.71,5.11,0,6.85l-14.94,8.07c-2.71,1.74-7.11,1.74-9.83,0l-14.94-8.07c-2.71-1.74-2.71-4.87,0-6.6l14.94-8.52c2.71-1.74,7.11-1.74,9.83,0l14.94,8.28Z" fill="url(#ae)"/><path d="m44.54,35.52c2.71,1.74,2.71,5.11,0,6.85l-14.94,8.07c-2.71,1.74-7.11,1.74-9.83,0l-14.94-8.07c-2.71-1.74-2.71-4.87,0-6.6l14.94-8.52c2.71-1.74,7.11-1.74,9.83,0l14.94,8.28Z" fill="url(#af)"/><path d="m44.43,34.73c2.71,1.74,2.71,5.11,0,6.85l-14.94,8.07c-2.71,1.74-7.11,1.74-9.83,0l-14.94-8.07c-2.71-1.74-2.71-4.87,0-6.6l14.94-8.52c2.71-1.74,7.11-1.74,9.83,0l14.94,8.28Z" fill="url(#ag)"/></g><g><g><polygon points="5.05 39.79 4.98 39.66 27.13 27 27.21 27.13 5.05 39.79" fill="#50b3e5"/><path d="m24.58,28.56c-.1-.17.97-.56.97-.56,0,0-.87.73-.97.56" fill="url(#ah)"/><path d="m15.11,33.95c-.1-.17.97-.56.97-.56,0,0-.87.73-.97.56" fill="url(#ai)"/><path d="m5.64,39.34c-.1-.17.97-.56.97-.56,0,0-.87.73-.97.56" fill="url(#aj)"/></g><g><polygon points="6.96 40.9 6.89 40.78 29.04 28.12 29.11 28.24 6.96 40.9" fill="#50b3e5"/><path d="m26.49,29.68c-.1-.17.97-.56.97-.56,0,0-.87.73-.97.56" fill="url(#ak)"/><path d="m17.02,35.06c-.1-.17.97-.56.97-.56,0,0-.87.73-.97.56" fill="url(#al)"/><path d="m7.55,40.45c-.1-.17.97-.56.97-.56,0,0-.87.73-.97.56" fill="url(#am)"/></g><g><polygon points="3.13 38.67 3.06 38.55 25.21 25.89 25.28 26.01 3.13 38.67" fill="#50b3e5"/><path d="m22.65,27.45c-.1-.17.97-.56.97-.56,0,0-.87.73-.97.56" fill="url(#an)"/><path d="m13.18,32.84c-.1-.17.97-.56.97-.56,0,0-.87.73-.97.56" fill="url(#ao)"/><path d="m3.71,38.22c-.1-.17.97-.56.97-.56,0,0-.87.73-.97.56" fill="url(#ap)"/></g><g><polygon points="8.87 42.02 8.8 41.89 30.95 29.23 31.02 29.36 8.87 42.02" fill="#50b3e5"/><path d="m28.4,30.79c-.1-.17.97-.56.97-.56,0,0-.87.73-.97.56" fill="url(#aq)"/><path d="m18.92,36.18c-.1-.17.97-.56.97-.56,0,0-.87.73-.97.56" fill="url(#ar)"/><path d="m9.45,41.56c-.1-.17.97-.56.97-.56,0,0-.87.73-.97.56" fill="url(#as)"/></g><g><polygon points="10.78 43.13 10.7 43 32.86 30.35 32.93 30.47 10.78 43.13" fill="#50b3e5"/><path d="m30.3,31.91c-.1-.17.97-.56.97-.56,0,0-.87.73-.97.56" fill="url(#at)"/><path d="m20.83,37.29c-.1-.17.97-.56.97-.56,0,0-.87.73-.97.56" fill="url(#au)"/><path d="m11.36,42.68c-.1-.17.97-.56.97-.56,0,0-.87.73-.97.56" fill="url(#av)"/></g><g><polygon points="12.69 44.25 12.61 44.12 34.76 31.46 34.84 31.59 12.69 44.25" fill="#50b3e5"/><path d="m32.21,33.02c-.1-.17.97-.56.97-.56,0,0-.87.73-.97.56" fill="url(#aw)"/><path d="m22.74,38.41c-.1-.17.97-.56.97-.56,0,0-.87.73-.97.56" fill="url(#ax)"/><path d="m13.27,43.79c-.1-.17.97-.56.97-.56,0,0-.87.73-.97.56" fill="url(#ay)"/></g><g><polygon points="14.59 45.36 14.52 45.23 36.67 32.57 36.74 32.7 14.59 45.36" fill="#50b3e5"/><path d="m34.12,34.14c-.1-.17.97-.56.97-.56,0,0-.87.73-.97.56" fill="url(#az)"/><path d="m24.65,39.52c-.1-.17.97-.56.97-.56,0,0-.87.73-.97.56" fill="url(#ba)"/><path d="m15.18,44.91c-.1-.17.97-.56.97-.56,0,0-.87.73-.97.56" fill="url(#bb)"/></g><g><polygon points="16.5 46.47 16.43 46.35 38.58 33.69 38.65 33.81 16.5 46.47" fill="#50b3e5"/><path d="m36.03,35.25c-.1-.17.97-.56.97-.56,0,0-.87.73-.97.56" fill="url(#bc)"/><path d="m26.56,40.64c-.1-.17.97-.56.97-.56,0,0-.87.73-.97.56" fill="url(#bd)"/><path d="m17.09,46.02c-.1-.17.97-.56.97-.56,0,0-.87.73-.97.56" fill="url(#be)"/></g><g><polygon points="18.41 47.59 18.34 47.46 40.49 34.8 40.56 34.93 18.41 47.59" fill="#50b3e5"/><path d="m37.93,36.36c-.1-.17.97-.56.97-.56,0,0-.87.73-.97.56" fill="url(#bf)"/><path d="m28.46,41.75c-.1-.17.97-.56.97-.56,0,0-.87.73-.97.56" fill="url(#bg)"/><path d="m18.99,47.14c-.1-.17.97-.56.97-.56,0,0-.87.73-.97.56" fill="url(#bh)"/></g><g><polygon points="20.32 48.7 20.24 48.58 42.39 35.92 42.47 36.04 20.32 48.7" fill="#50b3e5"/><path d="m39.84,37.48c-.1-.17.97-.56.97-.56,0,0-.87.73-.97.56" fill="url(#bi)"/><path d="m30.37,42.86c-.1-.17.97-.56.97-.56,0,0-.87.73-.97.56" fill="url(#bj)"/><path d="m20.9,48.25c-.1-.17.97-.56.97-.56,0,0-.87.73-.97.56" fill="url(#bk)"/></g><g><polygon points="22.22 49.82 22.15 49.69 44.3 37.03 44.38 37.16 22.22 49.82" fill="#50b3e5"/><path d="m41.75,38.59c-.1-.17.97-.56.97-.56,0,0-.87.73-.97.56" fill="url(#bl)"/><path d="m32.28,43.98c-.1-.17.97-.56.97-.56,0,0-.87.73-.97.56" fill="url(#bm)"/><path d="m22.81,49.36c-.1-.17.97-.56.97-.56,0,0-.87.73-.97.56" fill="url(#bn)"/></g><g><polygon points="24.13 50.93 24.06 50.81 46.21 38.15 46.28 38.27 24.13 50.93" fill="#50b3e5"/><path d="m43.66,39.71c-.1-.17.97-.56.97-.56,0,0-.87.73-.97.56" fill="url(#bo)"/><path d="m34.19,45.09c-.1-.17.97-.56.97-.56,0,0-.87.73-.97.56" fill="url(#bp)"/><path d="m24.72,50.48c-.1-.17.97-.56.97-.56,0,0-.87.73-.97.56" fill="url(#bq)"/></g></g><g><path d="m34.94,12.27l-4.08,2.35c-.67.39-1.21,1.24-1.21,1.91v4.07c0,.67.54.9,1.21.51l4.08-2.35c.67-.39,1.21-1.24,1.21-1.91v-4.07c0-.67-.54-.9-1.21-.51Z" fill="url(#br)" fill-rule="evenodd"/><path d="m35.31,12.42l-4.08,2.35c-.67.39-1.21,1.24-1.21,1.91v4.07c0,.67.54.9,1.21.51l4.08-2.35c.67-.39,1.21-1.24,1.21-1.91v-4.07c0-.67-.54-.9-1.21-.51Z" fill="url(#bs)" fill-rule="evenodd"/><g><path d="m36.79,17.23c0,.67-.54,1.53-1.21,1.91l-4.08,2.35c-.67.39-1.21.16-1.21-.51v-4.07c0-.67.54-1.53,1.21-1.91l4.08-2.35c.67-.39,1.21-.16,1.21.51v4.07Z" fill="url(#bt)" fill-rule="evenodd"/><path d="m36.28,17.2c0,.56-.46,1.28-1.02,1.61l-3.43,1.98c-.56.33-1.02.13-1.02-.43v-3.43c0-.56.46-1.28,1.02-1.61l3.43-1.98c.56-.33,1.02-.13,1.02.43v3.43Z" fill="#fff" fill-rule="evenodd"/><path d="m33.54,15.38s.36.68,1.4.08c0,0-.53,2.8-1.4,3.3-.87.5-1.4-1.69-1.4-1.69,1.04-.6,1.4-1.69,1.4-1.69" fill="url(#bu)" fill-rule="evenodd"/></g></g><g><path d="m34.14,1.27l-4.08,2.35c-.67.39-1.21,1.24-1.21,1.91v4.07c0,.67.54.9,1.21.51l4.08-2.35c.67-.39,1.21-1.24,1.21-1.91V1.79c0-.67-.54-.9-1.21-.51Z" fill="url(#bv)" fill-rule="evenodd"/><path d="m34.51,1.42l-4.08,2.35c-.67.39-1.21,1.24-1.21,1.91v4.07c0,.67.54.9,1.21.51l4.08-2.35c.67-.39,1.21-1.24,1.21-1.91V1.93c0-.67-.54-.9-1.21-.51Z" fill="url(#bw)" fill-rule="evenodd"/><g><g><path d="m36.03,6.26c0,.67-.54,1.53-1.21,1.91l-4.08,2.35c-.67.39-1.21.16-1.21-.51v-4.07c0-.67.54-1.52,1.21-1.91l4.08-2.35c.67-.39,1.21-.16,1.21.51v4.07Z" fill="url(#bx)" fill-rule="evenodd"/><path d="m35.52,6.23c0,.56-.46,1.28-1.02,1.61l-3.43,1.98c-.56.33-1.02.13-1.02-.43v-3.43c0-.56.46-1.28,1.02-1.61l3.43-1.98c.56-.33,1.02-.13,1.02.43v3.43Z" fill="#fff" fill-rule="evenodd"/></g><g><polygon points="31.61 8.92 30.76 9.41 30.76 7.42 31.61 6.93 31.61 8.92" fill="url(#by)" fill-rule="evenodd"/><polygon points="33.03 8.1 32.18 8.59 32.18 6.02 33.03 5.53 33.03 8.1" fill="url(#bz)" fill-rule="evenodd"/><polygon points="34.45 7.28 33.6 7.77 33.6 4.56 34.45 4.07 34.45 7.28" fill="url(#ca)" fill-rule="evenodd"/><path d="m30.75,6.79c.73-.21,1.44-1.03,2.09-1.68.55-.55,1.19-1.27,1.47-1.98.08-.2-.15-.2-.23,0-.24.62-.78,1.22-1.25,1.71-.59.62-1.34,1.47-2.01,1.66-.16.05-.23.34-.07.3h0Z" fill="url(#cb)"/></g></g></g><g><path d="m25.28,27.26c0,.46-.37,1.04-.83,1.31l-13.62,7.86c-.46.26-.83.11-.83-.35V13.7c0-.46.37-1.04.83-1.31l13.62-7.86c.46-.26.83-.11.83.35v22.39Z" fill="url(#cc)"/><path d="m26.47,27.64c0,.46-.37,1.04-.83,1.31l-13.62,7.86c-.46.26-.83.11-.83-.35V14.07c0-.46.37-1.04.83-1.31l13.62-7.86c.46-.26.83-.11.83.35v22.39Z" fill="url(#cd)"/><path d="m27.66,28.02c0,.46-.37,1.04-.83,1.31l-13.62,7.86c-.46.26-.83.11-.83-.35V14.45c0-.46.37-1.04.83-1.31l13.62-7.86c.46-.26.83-.11.83.35v22.39Z" fill="url(#ce)"/><g><polygon points="15.31 34.18 13.89 35 13.89 25.58 15.31 24.75 15.31 34.18" fill="url(#cf)"/><polygon points="18.03 32.61 16.61 33.43 16.61 27.15 18.03 26.32 18.03 32.61" fill="url(#cg)"/><polygon points="20.75 31.04 19.33 31.86 19.33 23.86 20.75 23.04 20.75 31.04" fill="url(#ch)"/><polygon points="23.47 29.47 22.05 30.29 22.05 25.29 23.47 24.46 23.47 29.47" fill="url(#ci)"/><polygon points="26.19 27.9 24.77 28.72 24.77 25.7 26.19 24.87 26.19 27.9" fill="url(#cj)"/></g><g><polygon points="22.5 9.51 18.83 11.63 18.83 11.09 22.5 8.97 22.5 9.51" fill="url(#ck)"/><polygon points="23.63 14 18.83 16.77 18.83 15.79 23.63 13.02 23.63 14" fill="url(#cl)"/><polygon points="23.63 10.49 18.83 13.26 18.83 12.28 23.63 9.51 23.63 10.49" fill="url(#cm)"/><polygon points="26.78 12.77 18.83 17.36 18.83 17.09 26.78 12.5 26.78 12.77" fill="url(#cn)"/><polygon points="25.04 14.43 18.83 18.01 18.83 17.74 25.04 14.15 25.04 14.43" fill="url(#co)"/><polygon points="26.1 14.46 18.83 18.66 18.83 18.39 26.1 14.19 26.1 14.46" fill="url(#cp)"/><polygon points="22.87 16.97 18.83 19.31 18.83 19.03 22.87 16.7 22.87 16.97" fill="url(#cq)"/><polygon points="25.14 16.31 18.83 19.95 18.83 19.68 25.14 16.04 25.14 16.31" fill="url(#cr)"/></g><path d="m17.44,14.06c0-1.16-.94-1.55-2.1-.89-1.16.67-2.1,2.15-2.1,3.3s.94,1.55,2.1.89v-2.1l2.1-1.21Z" fill="url(#cs)"/><g><path d="m26.47,24.42c-.39-.93-.9-1.74-1.34-2.62-.35-.7-.71-1.45-1.34-1.84-.05-.03-.14.04-.2.11-.77,1.04-1.22,2.2-1.83,3.29.06-.04.11-.08.17-.12-.46-.05-.46-.81-.61-1.2-.22-.55-.42-1.15-.8-1.53-.06-.06-.18.02-.24.14-.3.64-.43,1.28-.72,1.93-.11.24-.27.54-.48.5-.15-.03-.24-.16-.33-.27-.13-.17-.26-.35-.39-.53-.49-.66-1.08-1.11-1.88-1.35-.81-.24-1.7-.33-2.57-.46-.15-.02-.29.3-.14.32.96.14,1.93.24,2.81.54.88.3,1.38,1.03,1.94,1.75.14.18.33.4.64.29.23-.08.42-.35.55-.59.38-.71.49-1.42.82-2.13-.08.05-.16.09-.24.14.22.22.37.52.5.84.11.26.24.51.33.79.15.45.19,1.09.69,1.14.05,0,.13-.05.17-.12.62-1.09,1.06-2.25,1.83-3.29-.07.04-.13.08-.2.11.63.39.98,1.17,1.33,1.87.42.84.91,1.62,1.28,2.5.06.14.33-.09.27-.23h0Z" fill="url(#ct)"/><path d="m14.35,20.07c-.15.41-.41.82-.65,1.21.08-.01.16-.03.24-.04-.02-.17,0-.36-.03-.51-.04-.18-.16-.28-.2-.47-.03.08-.07.15-.1.23.23-.21.55-.29.78-.35-.02-.07-.04-.13-.06-.2-.17.28-.36.56-.5.85.09-.03.17-.05.26-.08-.02-.15-.01-.31-.03-.46-.02.07-.04.13-.06.2.02-.01.04-.03.05-.04.18-.11.18-.39,0-.28-.07.04-.13.09-.19.16-.06.07-.07.14-.06.2.02.12,0,.27.02.39.02.13.18.09.26-.08.13-.26.3-.52.46-.77.07-.12.04-.23-.06-.2-.27.08-.65.19-.93.44-.08.07-.11.16-.1.23.03.14.11.22.16.35.06.15.03.38.05.57.01.11.15.11.24-.04.26-.42.54-.86.7-1.3.08-.21-.17-.21-.24,0h0Z" fill="url(#cu)"/><path d="m13.64,20.49s.01.03.02.05c.01.03.03.05.06.05.03,0,.07-.02.11-.05.07-.06.13-.18.1-.23,0-.02-.01-.03-.02-.05-.01-.03-.03-.05-.06-.05-.03,0-.07.02-.11.05-.07.06-.13.17-.1.23h0Z" fill="url(#cv)"/></g></g><g><polygon points="34.47 37.42 34.47 28.38 30.42 26.04 30.42 35.08 34.47 37.42" fill="url(#cw)"/><polygon points="34.47 37.42 34.47 28.38 38.51 26.04 38.51 35.08 34.47 37.42" fill="url(#cx)"/><polygon points="34.47 23.7 38.51 26.04 38.51 26.04 34.47 28.38 30.42 26.04 30.42 26.04 34.47 23.7" fill="url(#cy)"/><polygon points="34.47 24.57 37.01 26.04 37.01 26.04 34.47 27.51 31.92 26.04 31.92 26.04 34.47 24.57" fill="url(#cz)"/></g><g><polygon points="28.25 41.01 28.25 34.2 24.2 31.86 24.2 38.67 28.25 41.01" fill="url(#da)"/><polygon points="28.25 41.01 28.25 34.2 32.3 31.86 32.3 38.67 28.25 41.01" fill="url(#db)"/><polygon points="28.25 29.52 32.3 31.86 32.3 31.86 28.25 34.2 24.2 31.86 24.2 31.86 28.25 29.52" fill="url(#dc)"/></g><g><polygon points="29.78 40.12 29.01 39.68 28.25 40.12 29.02 40.56 29.78 40.12" fill="url(#dd)"/><polygon points="29.02 40.56 29.02 41.44 28.25 41 28.25 40.12 29.02 40.56" fill="url(#de)"/><polygon points="29.78 40.12 29.78 41 29.02 41.44 29.02 40.56 29.78 40.12" fill="url(#df)"/></g><g><polygon points="30.88 38.4 30.11 37.96 29.35 38.4 30.12 38.85 30.88 38.4" fill="url(#dg)"/><polygon points="30.12 38.85 30.12 39.73 29.35 39.29 29.35 38.4 30.12 38.85" fill="url(#dh)"/><polygon points="30.88 38.4 30.88 39.29 30.12 39.73 30.12 38.85 30.88 38.4" fill="url(#di)"/></g><g><polygon points="31.98 36.69 31.21 36.25 30.44 36.69 31.21 37.13 31.98 36.69" fill="url(#dj)"/><polygon points="31.21 37.13 31.21 38.02 30.44 37.58 30.44 36.69 31.21 37.13" fill="url(#dk)"/><polygon points="31.98 36.69 31.98 37.57 31.21 38.02 31.21 37.13 31.98 36.69" fill="url(#dl)"/></g><g><polygon points="33.08 34.98 32.31 34.54 31.54 34.98 32.31 35.42 33.08 34.98" fill="url(#dm)"/><polygon points="32.31 35.42 32.31 36.3 31.54 35.86 31.54 34.98 32.31 35.42" fill="url(#dn)"/><polygon points="33.08 34.98 33.08 35.86 32.31 36.3 32.31 35.42 33.08 34.98" fill="url(#do)"/></g><g><polygon points="31.98 34.27 31.21 33.83 30.44 34.27 31.21 34.71 31.98 34.27" fill="url(#dp)"/><polygon points="31.21 34.71 31.21 35.59 30.44 35.15 30.44 34.27 31.21 34.71" fill="url(#dq)"/><polygon points="31.98 34.27 31.98 35.15 31.21 35.59 31.21 34.71 31.98 34.27" fill="url(#dr)"/></g><g><polygon points="30.88 33.55 30.11 33.11 29.35 33.55 30.12 33.99 30.88 33.55" fill="url(#ds)"/><polygon points="30.12 33.99 30.12 34.88 29.35 34.44 29.35 33.55 30.12 33.99" fill="url(#dt)"/><polygon points="30.88 33.55 30.88 34.43 30.12 34.88 30.12 33.99 30.88 33.55" fill="url(#du)"/></g><polygon points="37.04 26.02 34.47 27.51 31.97 26.09 31.97 20.88 34.84 19.25 37.04 20.36 37.04 26.02" fill="url(#dv)"/><g><line x1="34.89" y1="28.42" x2="34.89" y2="31.27" fill="none" stroke="#50b3e5" stroke-miterlimit="10" stroke-width="4"/><line x1="35.52" y1="28.09" x2="35.52" y2="31.77" fill="none" stroke="#50b3e5" stroke-miterlimit="10" stroke-width="4"/><line x1="36.15" y1="27.77" x2="36.15" y2="32.28" fill="none" stroke="#50b3e5" stroke-miterlimit="10" stroke-width="4"/><line x1="36.78" y1="27.45" x2="36.78" y2="32.79" fill="none" stroke="#50b3e5" stroke-miterlimit="10" stroke-width="4"/><line x1="37.41" y1="27.12" x2="37.41" y2="33.29" fill="none" stroke="#50b3e5" stroke-miterlimit="10" stroke-width="4"/><line x1="38.04" y1="26.8" x2="38.04" y2="33.8" fill="none" stroke="#50b3e5" stroke-miterlimit="10" stroke-width="4"/></g><path d="m34.93,30.8c-.22,0-.05-1.28-.05-1.28,0,0,.27,1.27.05,1.28" fill="url(#dw)"/><path d="m35.56,29.65c-.22,0-.05-1.28-.05-1.28,0,0,.27,1.27.05,1.28" fill="url(#dx)"/><path d="m36.19,31.21c-.22,0-.05-1.28-.05-1.28,0,0,.27,1.27.05,1.28" fill="url(#dy)"/><path d="m36.79,30.12c-.22,0-.05-1.28-.05-1.28,0,0,.27,1.27.05,1.28" fill="url(#dz)"/><path d="m37.45,28.49c-.22,0-.05-1.28-.05-1.28,0,0,.27,1.27.05,1.28" fill="url(#ea)"/><path d="m37.45,32.18c-.22,0-.05-1.28-.05-1.28,0,0,.27,1.27.05,1.28" fill="url(#eb)"/><path d="m38.05,29.77c-.22,0-.05-1.28-.05-1.28,0,0,.27,1.27.05,1.28" fill="url(#ec)"/><path d="m38.05,33.75c-.22,0-.05-1.28-.05-1.28,0,0,.27,1.27.05,1.28" fill="url(#ed)"/><g><polygon points="34.83 32.61 35.46 32.24 35.46 36.6 34.83 36.97 34.83 32.61" fill="url(#ee)"/><polygon points="35.85 33.68 36.48 33.31 36.48 36.02 35.85 36.39 35.85 33.68" fill="url(#ef)"/><polygon points="36.86 34.09 37.5 33.72 37.5 35.43 36.86 35.8 36.86 34.09" fill="url(#eg)"/><polygon points="34.83 36.24 34.83 36.97 35.46 36.61 34.83 36.24" fill="url(#eh)"/><polygon points="35.85 35.66 35.85 36.39 36.48 36.02 35.85 35.66" fill="url(#ei)"/><polygon points="36.86 35.07 36.86 35.8 37.5 35.44 36.86 35.07" fill="url(#ej)"/></g><polygon points="29.79 40.99 29 41.44 28.24 41.01 28.24 39.42 29.12 38.92 29.79 39.26 29.79 40.99" fill="url(#ek)"/><polygon points="31.99 37.56 31.2 38.02 30.44 37.58 30.44 35.99 31.31 35.5 31.99 35.83 31.99 37.56" fill="url(#el)"/><polygon points="31.99 35.14 31.21 35.59 30.44 35.16 30.44 33.57 31.32 33.07 31.99 33.41 31.99 35.14" fill="url(#em)"/><g><polygon points="26.64 39.02 27.82 39.7 27.82 38.33 26.64 37.65 26.64 39.02" fill="url(#en)"/><polygon points="27.82 39.7 26.64 39.02 27.82 38.33 27.82 39.7" fill="url(#eo)"/></g><g><g><polygon points="22.03 44.6 22.03 38.85 17.98 36.51 17.98 42.26 22.03 44.6" fill="url(#ep)"/><polygon points="22.03 44.6 22.03 38.85 26.08 36.51 26.08 42.26 22.03 44.6" fill="url(#eq)"/><polygon points="22.03 34.18 26.08 36.51 26.08 36.51 22.03 38.85 17.98 36.51 17.98 36.51 22.03 34.18" fill="url(#er)"/></g><g><path d="m24.27,41.35c-.3.17-.54.56-.54.86v1.41l1.09-.63v-1.41c0-.3-.24-.4-.54-.23Z" fill="url(#es)"/><path d="m24.56,41.27s.04.11.04.18v1.41l.22.13v-1.41c0-.19-.1-.31-.26-.31Z" fill="url(#et)"/></g></g><g><polygon points="26.64 35.46 27.82 36.14 27.82 34.77 26.64 34.09 26.64 35.46" fill="url(#eu)"/><polygon points="27.82 36.14 26.64 35.46 27.82 34.77 27.82 36.14" fill="url(#ev)"/></g><g><polygon points="24.57 34.38 25.76 35.07 25.76 33.7 24.57 33.01 24.57 34.38" fill="url(#ew)"/><polygon points="25.76 35.07 24.57 34.38 25.76 33.69 25.76 35.07" fill="url(#ex)"/></g><g><g><path d="m37.68,37.72s-.34-.31-.78,0l-10.76,6.26s-.45.27,0,.53l2.89,1.67s.34.31.78,0l10.77-6.26c.45-.26,0-.53,0-.53l-2.89-1.67Z" fill="url(#ey)"/><path d="m25.94,45.41c0,.08.04.17.2.26l2.89,1.67s.34.31.78,0l10.77-6.26c.16-.09.2-.18.2-.27v-1.16c0,.08-.05.17-.2.26l-10.77,6.26c-.44.31-.78,0-.78,0l-2.89-1.67c-.15-.09-.2-.18-.2-.26v1.16Z" fill="url(#ez)"/><path d="m25.94,44.58c0,.08.04.17.2.27l2.89,1.67s.34.31.78,0l10.77-6.26c.16-.09.2-.18.2-.27v-.13c0,.08-.05.17-.2.26l-10.77,6.26c-.44.31-.78,0-.78,0l-2.89-1.67c-.15-.09-.2-.18-.2-.26v.13Z" fill="url(#fa)"/><path d="m25.94,45.1c0,.08.04.17.2.27l2.89,1.67s.34.31.78,0l10.77-6.26c.16-.09.2-.18.2-.27v-.13c0,.08-.05.17-.2.26l-10.77,6.26c-.44.31-.78,0-.78,0l-2.89-1.67c-.15-.09-.2-.18-.2-.26v.13Z" fill="url(#fb)"/></g><g><path d="m37.68,36.28s-.34-.31-.78,0l-10.76,6.26s-.45.27,0,.53l2.89,1.67s.34.31.78,0l10.77-6.26c.45-.26,0-.53,0-.53l-2.89-1.67Z" fill="url(#fc)"/><path d="m25.94,43.97c0,.08.04.17.2.26l2.89,1.67s.34.31.78,0l10.77-6.26c.16-.09.2-.18.2-.27v-1.16c0,.08-.05.17-.2.26l-10.77,6.26c-.44.31-.78,0-.78,0l-2.89-1.67c-.15-.09-.2-.18-.2-.26v1.16Z" fill="url(#fd)"/><path d="m25.94,43.15c0,.08.04.17.2.27l2.89,1.67s.34.31.78,0l10.77-6.26c.16-.09.2-.18.2-.27v-.13c0,.08-.05.17-.2.26l-10.77,6.26c-.44.31-.78,0-.78,0l-2.89-1.67c-.15-.09-.2-.18-.2-.26v.13Z" fill="url(#fe)"/><path d="m25.94,43.66c0,.08.04.17.2.27l2.89,1.67s.34.31.78,0l10.77-6.26c.16-.09.2-.18.2-.27v-.13c0,.08-.05.17-.2.26l-10.77,6.26c-.44.31-.78,0-.78,0l-2.89-1.67c-.15-.09-.2-.18-.2-.26v.13Z" fill="url(#ff)"/></g><g><g><line x1="31.33" y1="41.3" x2="29.99" y2="40.52" fill="none" stroke="#50b3e5" stroke-miterlimit="10" stroke-width="4"/><path d="m30.82,41.01c.03-.05-.31-.18-.31-.18,0,0,.28.23.31.18" fill="url(#fg)"/></g><g><line x1="30.82" y1="41.59" x2="29.47" y2="40.82" fill="none" stroke="#50b3e5" stroke-miterlimit="10" stroke-width="4"/><path d="m30.3,41.3c.03-.05-.31-.18-.31-.18,0,0,.28.23.31.18" fill="url(#fh)"/></g></g><g><g><line x1="32.95" y1="42.28" x2="31.6" y2="41.5" fill="none" stroke="#50b3e5" stroke-miterlimit="10" stroke-width="4"/><path d="m32.43,41.99c.03-.05-.31-.18-.31-.18,0,0,.28.23.31.18" fill="url(#fi)"/></g><g><line x1="32.43" y1="42.57" x2="31.09" y2="41.8" fill="none" stroke="#50b3e5" stroke-miterlimit="10" stroke-width="4"/><path d="m31.92,42.28c.03-.05-.31-.18-.31-.18,0,0,.28.23.31.18" fill="url(#fj)"/></g></g><g><g><line x1="35.58" y1="38.99" x2="34.24" y2="38.21" fill="none" stroke="#50b3e5" stroke-miterlimit="10" stroke-width="4"/><path d="m35.06,38.7c.03-.05-.31-.18-.31-.18,0,0,.28.23.31.18" fill="url(#fk)"/></g><g><line x1="35.07" y1="39.28" x2="33.72" y2="38.51" fill="none" stroke="#50b3e5" stroke-miterlimit="10" stroke-width="4"/><path d="m34.55,38.99c.03-.05-.31-.18-.31-.18,0,0,.28.23.31.18" fill="url(#fl)"/></g></g><g><g><line x1="37.2" y1="39.97" x2="35.85" y2="39.19" fill="none" stroke="#50b3e5" stroke-miterlimit="10" stroke-width="4"/><path d="m36.68,39.68c.03-.05-.31-.18-.31-.18,0,0,.28.23.31.18" fill="url(#fm)"/></g><g><line x1="36.68" y1="40.26" x2="35.34" y2="39.49" fill="none" stroke="#50b3e5" stroke-miterlimit="10" stroke-width="4"/><path d="m36.16,39.97c.03-.05-.31-.18-.31-.18,0,0,.28.23.31.18" fill="url(#fn)"/></g></g><g><polygon points="29.11 44.28 29.11 43.97 26.67 42.56 26.67 42.87 29.11 44.28" fill="url(#fo)"/><polygon points="29.11 44.28 29.11 43.97 31.55 42.56 31.55 42.87 29.11 44.28" fill="url(#fp)"/><polygon points="29.11 41.15 31.55 42.56 31.55 42.56 29.11 43.97 26.67 42.56 26.67 42.56 29.11 41.15" fill="url(#fq)"/><g><polygon points="29.11 43.63 29.11 43.52 27.36 42.5 27.36 42.62 29.11 43.63" fill="url(#fr)"/><polygon points="29.11 43.63 29.11 43.52 30.87 42.5 30.87 42.62 29.11 43.63" fill="url(#fs)"/><polygon points="29.11 41.49 30.87 42.5 30.87 42.5 29.11 43.52 27.36 42.5 27.36 42.5 29.11 41.49" fill="url(#ft)"/></g><g><path d="m30.79,42.75s0,0,0,0c0-.16-.04-.17-.05-.17,0,0,0,0,0,0,0,0,0,0,0,0,0,0,.04.01.04.15,0,0,0,0,0,0Z"/><path d="m30.59,42.87s0,0,0,0c0-.16-.04-.17-.05-.17,0,0,0,0,0,0,0,0,0,0,0,0,0,0,.04.01.04.15,0,0,0,0,0,0Z"/><path d="m30.39,42.98s0,0,0,0c0-.16-.04-.17-.05-.17,0,0,0,0,0,0,0,0,0,0,0,0,0,0,.04.01.04.15,0,0,0,0,0,0Z"/><path d="m30.2,43.1s0,0,0,0c0-.16-.04-.17-.05-.17,0,0,0,0,0,0,0,0,0,0,0,0,0,0,.04.01.04.15,0,0,0,0,0,0Z"/><path d="m30,43.21s0,0,0,0c0-.16-.04-.17-.05-.17,0,0,0,0,0,0,0,0,0,0,0,0,0,0,.04.01.04.15,0,0,0,0,0,0Z"/><path d="m29.8,43.33s0,0,0,0c0-.16-.04-.17-.05-.17,0,0,0,0,0,0,0,0,0,0,0,0,0,0,.04.01.04.15,0,0,0,0,0,0Z"/><path d="m29.61,43.44s0,0,0,0c0-.16-.04-.17-.05-.17,0,0,0,0,0,0,0,0,0,0,0,0,0,0,.04.01.04.15,0,0,0,0,0,0Z"/><path d="m29.41,43.56s0,0,0,0c0-.16-.04-.17-.05-.17,0,0,0,0,0,0,0,0,0,0,0,0,0,0,.04.01.04.15,0,0,0,0,0,0Z"/></g><g><path d="m27.45,42.75s0,0,0,0c0-.16.04-.17.05-.17,0,0,0,0,0,0,0,0,0,0,0,0,0,0-.04.01-.04.15,0,0,0,0,0,0Z"/><path d="m27.65,42.87s0,0,0,0c0-.16.04-.17.05-.17,0,0,0,0,0,0,0,0,0,0,0,0,0,0-.04.01-.04.15,0,0,0,0,0,0Z"/><path d="m27.84,42.98s0,0,0,0c0-.16.04-.17.05-.17,0,0,0,0,0,0,0,0,0,0,0,0,0,0-.04.01-.04.15,0,0,0,0,0,0Z"/><path d="m28.04,43.1s0,0,0,0c0-.16.04-.17.05-.17,0,0,0,0,0,0,0,0,0,0,0,0,0,0-.04.01-.04.15,0,0,0,0,0,0Z"/><path d="m28.24,43.21s0,0,0,0c0-.16.04-.17.05-.17,0,0,0,0,0,0,0,0,0,0,0,0,0,0-.04.01-.04.15,0,0,0,0,0,0Z"/><path d="m28.43,43.33s0,0,0,0c0-.16.04-.17.05-.17,0,0,0,0,0,0,0,0,0,0,0,0,0,0-.04.01-.04.15,0,0,0,0,0,0Z"/><path d="m28.63,43.44s0,0,0,0c0-.16.04-.17.05-.17,0,0,0,0,0,0,0,0,0,0,0,0,0,0-.04.01-.04.15,0,0,0,0,0,0Z"/><path d="m28.83,43.56s0,0,0,0c0-.16.04-.17.05-.17,0,0,0,0,0,0,0,0,0,0,0,0,0,0-.04.01-.04.15,0,0,0,0,0,0Z"/></g></g><g><polygon points="33.24 41.95 33.24 41.64 30.8 40.23 30.8 40.54 33.24 41.95" fill="url(#fu)"/><polygon points="33.24 41.95 33.24 41.64 35.67 40.23 35.67 40.54 33.24 41.95" fill="url(#fv)"/><polygon points="33.24 38.82 35.67 40.23 35.67 40.23 33.24 41.64 30.8 40.23 30.8 40.23 33.24 38.82" fill="url(#fw)"/><g><polygon points="33.24 41.3 33.24 41.19 31.48 40.17 31.48 40.29 33.24 41.3" fill="url(#fx)"/><polygon points="33.24 41.3 33.24 41.19 34.99 40.17 34.99 40.29 33.24 41.3" fill="url(#fy)"/><polygon points="33.24 39.16 34.99 40.17 34.99 40.17 33.24 41.19 31.48 40.17 31.48 40.17 33.24 39.16" fill="url(#fz)"/></g><g><path d="m34.91,40.42s0,0,0,0c0-.16-.04-.17-.05-.17,0,0,0,0,0,0,0,0,0,0,0,0,0,0,.04.01.04.15,0,0,0,0,0,0Z"/><path d="m34.71,40.54s0,0,0,0c0-.16-.04-.17-.05-.17,0,0,0,0,0,0,0,0,0,0,0,0,0,0,.04.01.04.15,0,0,0,0,0,0Z"/><path d="m34.52,40.65s0,0,0,0c0-.16-.04-.17-.05-.17,0,0,0,0,0,0,0,0,0,0,0,0,0,0,.04.01.04.15,0,0,0,0,0,0Z"/><path d="m34.32,40.77s0,0,0,0c0-.16-.04-.17-.05-.17,0,0,0,0,0,0,0,0,0,0,0,0,0,0,.04.01.04.15,0,0,0,0,0,0Z"/><path d="m34.12,40.89s0,0,0,0c0-.16-.04-.17-.05-.17,0,0,0,0,0,0,0,0,0,0,0,0,0,0,.04.01.04.15,0,0,0,0,0,0Z"/><path d="m33.93,41s0,0,0,0c0-.16-.04-.17-.05-.17,0,0,0,0,0,0,0,0,0,0,0,0,0,0,.04.01.04.15,0,0,0,0,0,0Z"/><path d="m33.73,41.12s0,0,0,0c0-.16-.04-.17-.05-.17,0,0,0,0,0,0,0,0,0,0,0,0,0,0,.04.01.04.15,0,0,0,0,0,0Z"/><path d="m33.53,41.23s0,0,0,0c0-.16-.04-.17-.05-.17,0,0,0,0,0,0,0,0,0,0,0,0,0,0,.04.01.04.15,0,0,0,0,0,0Z"/></g><g><path d="m31.57,40.42s0,0,0,0c0-.16.04-.17.05-.17,0,0,0,0,0,0,0,0,0,0,0,0,0,0-.04.01-.04.15,0,0,0,0,0,0Z"/><path d="m31.77,40.54s0,0,0,0c0-.16.04-.17.05-.17,0,0,0,0,0,0,0,0,0,0,0,0,0,0-.04.01-.04.15,0,0,0,0,0,0Z"/><path d="m31.97,40.65s0,0,0,0c0-.16.04-.17.05-.17,0,0,0,0,0,0,0,0,0,0,0,0,0,0-.04.01-.04.15,0,0,0,0,0,0Z"/><path d="m32.16,40.77s0,0,0,0c0-.16.04-.17.05-.17,0,0,0,0,0,0,0,0,0,0,0,0,0,0-.04.01-.04.15,0,0,0,0,0,0Z"/><path d="m32.36,40.89s0,0,0,0c0-.16.04-.17.05-.17,0,0,0,0,0,0,0,0,0,0,0,0,0,0-.04.01-.04.15,0,0,0,0,0,0Z"/><path d="m32.56,41s0,0,0,0c0-.16.04-.17.05-.17,0,0,0,0,0,0,0,0,0,0,0,0,0,0-.04.01-.04.15,0,0,0,0,0,0Z"/><path d="m32.75,41.12s0,0,0,0c0-.16.04-.17.05-.17,0,0,0,0,0,0,0,0,0,0,0,0,0,0-.04.01-.04.15,0,0,0,0,0,0Z"/><path d="m32.95,41.23s0,0,0,0c0-.16.04-.17.05-.17,0,0,0,0,0,0,0,0,0,0,0,0,0,0-.04.01-.04.15,0,0,0,0,0,0Z"/></g></g><g><polygon points="37.36 39.62 37.36 39.31 34.92 37.9 34.92 38.21 37.36 39.62" fill="url(#ga)"/><polygon points="37.36 39.62 37.36 39.31 39.8 37.9 39.8 38.21 37.36 39.62" fill="url(#gb)"/><polygon points="37.36 36.49 39.8 37.9 39.8 37.9 37.36 39.31 34.92 37.9 34.92 37.9 37.36 36.49" fill="url(#gc)"/><g><polygon points="37.36 38.97 37.36 38.86 35.6 37.85 35.6 37.96 37.36 38.97" fill="url(#gd)"/><polygon points="37.36 38.97 37.36 38.86 39.12 37.85 39.12 37.96 37.36 38.97" fill="url(#ge)"/><polygon points="37.36 36.83 39.12 37.85 39.12 37.85 37.36 38.86 35.6 37.85 35.6 37.85 37.36 36.83" fill="url(#gf)"/></g><g><path d="m39.03,38.1s0,0,0,0c0-.16-.04-.17-.05-.17,0,0,0,0,0,0,0,0,0,0,0,0,0,0,.04.01.04.15,0,0,0,0,0,0Z"/><path d="m38.84,38.21s0,0,0,0c0-.16-.04-.17-.05-.17,0,0,0,0,0,0,0,0,0,0,0,0,0,0,.04.01.04.15,0,0,0,0,0,0Z"/><path d="m38.64,38.33s0,0,0,0c0-.16-.04-.17-.05-.17,0,0,0,0,0,0,0,0,0,0,0,0,0,0,.04.01.04.15,0,0,0,0,0,0Z"/><path d="m38.44,38.44s0,0,0,0c0-.16-.04-.17-.05-.17,0,0,0,0,0,0,0,0,0,0,0,0,0,0,.04.01.04.15,0,0,0,0,0,0Z"/><path d="m38.25,38.56s0,0,0,0c0-.16-.04-.17-.05-.17,0,0,0,0,0,0,0,0,0,0,0,0,0,0,.04.01.04.15,0,0,0,0,0,0Z"/><path d="m38.05,38.67s0,0,0,0c0-.16-.04-.17-.05-.17,0,0,0,0,0,0,0,0,0,0,0,0,0,0,.04.01.04.15,0,0,0,0,0,0Z"/><path d="m37.85,38.79s0,0,0,0c0-.16-.04-.17-.05-.17,0,0,0,0,0,0,0,0,0,0,0,0,0,0,.04.01.04.15,0,0,0,0,0,0Z"/><path d="m37.66,38.9s0,0,0,0c0-.16-.04-.17-.05-.17,0,0,0,0,0,0,0,0,0,0,0,0,0,0,.04.01.04.15,0,0,0,0,0,0Z"/></g><g><path d="m35.7,38.1s0,0,0,0c0-.16.04-.17.05-.17,0,0,0,0,0,0,0,0,0,0,0,0,0,0-.04.01-.04.15,0,0,0,0,0,0Z"/><path d="m35.89,38.21s0,0,0,0c0-.16.04-.17.05-.17,0,0,0,0,0,0,0,0,0,0,0,0,0,0-.04.01-.04.15,0,0,0,0,0,0Z"/><path d="m36.09,38.33s0,0,0,0c0-.16.04-.17.05-.17,0,0,0,0,0,0,0,0,0,0,0,0,0,0-.04.01-.04.15,0,0,0,0,0,0Z"/><path d="m36.29,38.44s0,0,0,0c0-.16.04-.17.05-.17,0,0,0,0,0,0,0,0,0,0,0,0,0,0-.04.01-.04.15,0,0,0,0,0,0Z"/><path d="m36.48,38.56s0,0,0,0c0-.16.04-.17.05-.17,0,0,0,0,0,0,0,0,0,0,0,0,0,0-.04.01-.04.15,0,0,0,0,0,0Z"/><path d="m36.68,38.67s0,0,0,0c0-.16.04-.17.05-.17,0,0,0,0,0,0,0,0,0,0,0,0,0,0-.04.01-.04.15,0,0,0,0,0,0Z"/><path d="m36.88,38.79s0,0,0,0c0-.16.04-.17.05-.17,0,0,0,0,0,0,0,0,0,0,0,0,0,0-.04.01-.04.15,0,0,0,0,0,0Z"/><path d="m37.07,38.9s0,0,0,0c0-.16.04-.17.05-.17,0,0,0,0,0,0,0,0,0,0,0,0,0,0-.04.01-.04.15,0,0,0,0,0,0Z"/></g></g></g><g><g><polygon points="5.61 37.86 5.61 40.92 8.35 42.44 8.35 39.39 5.61 37.86" fill="url(#gg)"/><polygon points="11.09 37.86 11.09 40.92 8.35 42.44 8.35 39.39 11.09 37.86" fill="url(#gh)"/><polygon points="8.35 36.34 5.61 37.86 8.35 39.39 11.09 37.86 8.35 36.34" fill="url(#gi)"/><g><g><polygon points="7 39.51 5.96 38.92 6 38.89 7.04 39.48 7 39.51" fill="#ffe683"/><polygon points="6.99 40.04 6 39.48 6.05 39.46 7.03 40.02 6.99 40.04" fill="#ffe683"/><polygon points="6.05 38.98 6.01 39.01 6.02 39.54 6.05 39.46 6.05 38.98" fill="#fbb558"/><path d="m7,39.51l-1.04-.59v.59l1.05.59v-.59Zm-.99-.03v-.46l.92.52v.45s-.92-.52-.92-.52Z" fill="url(#gj)"/><polygon points="7.04 39.48 7 39.51 7 40.1 7.04 40.08 7.04 39.48" fill="#fbb558"/></g><polygon points="6.05 39.04 6.05 39.46 6.94 39.96 6.94 39.54 6.05 39.04" fill="#abafd8"/><polygon points="6.37 39.22 6.4 39.24 6.14 39.51 6.11 39.49 6.37 39.22" fill="#fff"/><polygon points="6.42 39.24 6.45 39.26 6.19 39.54 6.15 39.52 6.42 39.24" fill="#fff"/><polygon points="6.56 39.33 6.59 39.34 6.33 39.62 6.3 39.6 6.56 39.33" fill="#fff"/></g><g><path d="m7.57,40.68c.2.11.37.37.37.58v.96l-.74-.41v-.96c0-.2.17-.28.37-.16Z" fill="url(#gk)"/><path d="m7.38,40.62s-.03.07-.03.12v.96l-.15.09v-.96c0-.13.07-.21.17-.22Z" fill="url(#gl)"/></g><g><g><polygon points="9.95 39.48 10.56 39.13 10.51 39.1 9.9 39.45 9.95 39.48" fill="#ffe683"/><polygon points="9.96 40.8 10.51 40.48 10.47 40.45 9.91 40.77 9.96 40.8" fill="#ffe683"/><polygon points="10.46 39.19 10.51 39.22 10.5 40.54 10.46 40.46 10.46 39.19" fill="#fbb558"/><path d="m9.94,40.85l.62-.34v-1.38l-.61.35v1.37Zm.05-.1v-1.24s.49-.28.49-.28v1.25l-.49.28Z" fill="url(#gm)"/><polygon points="9.9 39.45 9.95 39.48 9.94 40.85 9.9 40.83 9.9 39.45" fill="#fbb558"/></g><polygon points="10.46 39.25 10.01 39.51 10 40.72 10.46 40.46 10.46 39.25" fill="#cde8dd"/><polygon points="10.14 39.43 10.23 39.38 10.42 40.48 10.33 40.54 10.14 39.43" fill="#fff"/><polygon points="10.09 39.46 10.12 39.44 10.3 40.55 10.27 40.56 10.09 39.46" fill="#fff"/></g><g><g><polygon points="9.12 39.94 9.73 39.59 9.68 39.57 9.07 39.92 9.12 39.94" fill="#ffe683"/><polygon points="9.13 41.26 9.68 40.94 9.63 40.92 9.08 41.23 9.13 41.26" fill="#ffe683"/><polygon points="9.63 39.66 9.67 39.68 9.67 41 9.63 40.92 9.63 39.66" fill="#fbb558"/><path d="m9.11,41.31l.62-.34v-1.38l-.61.35v1.37Zm.05-.1v-1.24s.49-.28.49-.28v1.25l-.49.28Z" fill="url(#gn)"/><polygon points="9.07 39.92 9.12 39.94 9.11 41.31 9.07 41.29 9.07 39.92" fill="#fbb558"/></g><polygon points="9.63 39.71 9.18 39.97 9.17 41.18 9.63 40.92 9.63 39.71" fill="#cde8dd"/><polygon points="9.31 39.89 9.4 39.84 9.58 40.95 9.49 41 9.31 39.89" fill="#fff"/><polygon points="9.26 39.92 9.29 39.91 9.47 41.01 9.44 41.03 9.26 39.92" fill="#fff"/></g></g><g><polygon points="5.61 33.85 5.61 36.9 8.35 38.43 8.35 35.37 5.61 33.85" fill="url(#go)"/><polygon points="11.09 33.85 11.09 36.9 8.35 38.43 8.35 35.37 11.09 33.85" fill="url(#gp)"/><polygon points="8.35 32.32 5.61 33.85 8.35 35.37 11.09 33.85 8.35 32.32" fill="url(#gq)"/><g><g><polygon points="7 35.49 5.96 34.9 6 34.88 7.04 35.47 7 35.49" fill="#ffe683"/><polygon points="6.99 36.03 6 35.47 6.05 35.44 7.03 36 6.99 36.03" fill="#ffe683"/><polygon points="6.05 34.97 6.01 34.99 6.02 35.53 6.05 35.44 6.05 34.97" fill="#fbb558"/><path d="m7,35.49l-1.04-.59v.59l1.05.59v-.59Zm-.99-.03v-.46l.92.52v.45s-.92-.52-.92-.52Z" fill="url(#gr)"/><polygon points="7.04 35.47 7 35.49 7 36.08 7.04 36.06 7.04 35.47" fill="#fbb558"/></g><polygon points="6.05 35.02 6.05 35.44 6.94 35.95 6.94 35.52 6.05 35.02" fill="#abafd8"/><polygon points="6.37 35.2 6.4 35.22 6.14 35.49 6.11 35.48 6.37 35.2" fill="#fff"/><polygon points="6.42 35.23 6.45 35.25 6.19 35.52 6.15 35.5 6.42 35.23" fill="#fff"/><polygon points="6.56 35.31 6.59 35.33 6.33 35.6 6.3 35.58 6.56 35.31" fill="#fff"/></g><g><g><polygon points="9.95 35.46 10.56 35.11 10.51 35.09 9.9 35.44 9.95 35.46" fill="#ffe683"/><polygon points="9.96 36.78 10.51 36.46 10.47 36.44 9.91 36.76 9.96 36.78" fill="#ffe683"/><polygon points="10.46 35.18 10.51 35.2 10.5 36.52 10.46 36.44 10.46 35.18" fill="#fbb558"/><path d="m9.94,36.84l.62-.34v-1.38l-.61.35v1.37Zm.05-.1v-1.24s.49-.28.49-.28v1.25l-.49.28Z" fill="url(#gs)"/><polygon points="9.9 35.44 9.95 35.46 9.94 36.84 9.9 36.82 9.9 35.44" fill="#fbb558"/></g><polygon points="10.46 35.23 10.01 35.49 10 36.7 10.46 36.44 10.46 35.23" fill="#cde8dd"/><polygon points="10.14 35.42 10.23 35.36 10.42 36.47 10.33 36.52 10.14 35.42" fill="#fff"/><polygon points="10.09 35.44 10.12 35.43 10.3 36.53 10.27 36.55 10.09 35.44" fill="#fff"/></g><g><g><polygon points="9.12 35.93 9.73 35.58 9.68 35.55 9.07 35.9 9.12 35.93" fill="#ffe683"/><polygon points="9.13 37.24 9.68 36.93 9.63 36.9 9.08 37.22 9.13 37.24" fill="#ffe683"/><polygon points="9.63 35.64 9.67 35.67 9.67 36.99 9.63 36.9 9.63 35.64" fill="#fbb558"/><path d="m9.11,37.3l.62-.34v-1.38l-.61.35v1.37Zm.05-.1v-1.24s.49-.28.49-.28v1.25l-.49.28Z" fill="url(#gt)"/><polygon points="9.07 35.9 9.12 35.93 9.11 37.3 9.07 37.28 9.07 35.9" fill="#fbb558"/></g><polygon points="9.63 35.7 9.18 35.96 9.17 37.17 9.63 36.91 9.63 35.7" fill="#cde8dd"/><polygon points="9.31 35.88 9.4 35.83 9.58 36.93 9.49 36.98 9.31 35.88" fill="#fff"/><polygon points="9.26 35.91 9.29 35.89 9.47 37 9.44 37.01 9.26 35.91" fill="#fff"/></g></g><g><polygon points="5.61 29.83 5.61 32.89 8.35 34.41 8.35 31.36 5.61 29.83" fill="url(#gu)"/><polygon points="11.09 29.83 11.09 32.89 8.35 34.41 8.35 31.36 11.09 29.83" fill="url(#gv)"/><polygon points="8.35 28.3 5.61 29.83 8.35 31.36 11.09 29.83 8.35 28.3" fill="url(#gw)"/><g><g><polygon points="7 31.48 5.96 30.89 6 30.86 7.04 31.45 7 31.48" fill="#ffe683"/><polygon points="6.99 32.01 6 31.45 6.05 31.43 7.03 31.99 6.99 32.01" fill="#ffe683"/><polygon points="6.05 30.95 6.01 30.98 6.02 31.51 6.05 31.43 6.05 30.95" fill="#fbb558"/><path d="m7,31.48l-1.04-.59v.59l1.05.59v-.59Zm-.99-.03v-.46l.92.52v.45s-.92-.52-.92-.52Z" fill="url(#gx)"/><polygon points="7.04 31.45 7 31.48 7 32.06 7.04 32.04 7.04 31.45" fill="#fbb558"/></g><polygon points="6.05 31.01 6.05 31.43 6.94 31.93 6.94 31.51 6.05 31.01" fill="#abafd8"/><polygon points="6.37 31.19 6.4 31.21 6.14 31.48 6.11 31.46 6.37 31.19" fill="#fff"/><polygon points="6.42 31.21 6.45 31.23 6.19 31.5 6.15 31.49 6.42 31.21" fill="#fff"/><polygon points="6.56 31.29 6.59 31.31 6.33 31.58 6.3 31.57 6.56 31.29" fill="#fff"/></g><g><g><polygon points="9.95 31.45 10.56 31.1 10.51 31.07 9.9 31.42 9.95 31.45" fill="#ffe683"/><polygon points="9.96 32.77 10.51 32.45 10.47 32.42 9.91 32.74 9.96 32.77" fill="#ffe683"/><polygon points="10.46 31.16 10.51 31.19 10.5 32.51 10.46 32.43 10.46 31.16" fill="#fbb558"/><path d="m9.94,32.82l.62-.34v-1.38l-.61.35v1.37Zm.05-.1v-1.24s.49-.28.49-.28v1.25l-.49.28Z" fill="url(#gy)"/><polygon points="9.9 31.42 9.95 31.45 9.94 32.82 9.9 32.8 9.9 31.42" fill="#fbb558"/></g><polygon points="10.46 31.22 10.01 31.48 10 32.69 10.46 32.43 10.46 31.22" fill="#cde8dd"/><polygon points="10.14 31.4 10.23 31.35 10.42 32.45 10.33 32.5 10.14 31.4" fill="#fff"/><polygon points="10.09 31.43 10.12 31.41 10.3 32.52 10.27 32.53 10.09 31.43" fill="#fff"/></g><g><g><polygon points="9.12 31.91 9.73 31.56 9.68 31.54 9.07 31.89 9.12 31.91" fill="#ffe683"/><polygon points="9.13 33.23 9.68 32.91 9.63 32.89 9.08 33.2 9.13 33.23" fill="#ffe683"/><polygon points="9.63 31.63 9.67 31.65 9.67 32.97 9.63 32.89 9.63 31.63" fill="#fbb558"/><path d="m9.11,33.28l.62-.34v-1.38l-.61.35v1.37Zm.05-.1v-1.24s.49-.28.49-.28v1.25l-.49.28Z" fill="url(#gz)"/><polygon points="9.07 31.89 9.12 31.91 9.11 33.28 9.07 33.26 9.07 31.89" fill="#fbb558"/></g><polygon points="9.63 31.68 9.18 31.94 9.17 33.15 9.63 32.89 9.63 31.68" fill="#cde8dd"/><polygon points="9.31 31.86 9.4 31.81 9.58 32.92 9.49 32.97 9.31 31.86" fill="#fff"/><polygon points="9.26 31.89 9.29 31.88 9.47 32.98 9.44 33 9.26 31.89" fill="#fff"/></g></g><polygon points="11.08 38 8.31 39.59 5.62 38.07 5.62 35.75 8.7 34 11.08 35.2 11.08 38" fill="url(#ha)"/><polygon points="11.08 33.78 8.31 35.38 5.62 33.85 5.62 31.54 8.7 29.79 11.08 30.98 11.08 33.78" fill="url(#hb)"/><polygon points="11.08 29.76 8.31 31.36 5.62 29.83 5.62 27.52 8.7 25.77 11.08 26.96 11.08 29.76" fill="url(#hc)"/></g><polygon points="34.24 40.25 33.21 40.84 32.21 40.27 32.21 38.19 33.36 37.54 34.24 37.98 34.24 40.25" fill="url(#hd)"/><polygon points="38.37 37.89 37.34 38.48 36.35 37.92 36.35 35.83 37.49 35.18 38.37 35.63 38.37 37.89" fill="url(#he)"/><polygon points="30.09 42.54 29.06 43.13 28.06 42.57 28.06 40.48 29.21 39.83 30.09 40.28 30.09 42.54" fill="url(#hf)"/><g><g><polygon points="21.46 39.58 18.97 38.14 18.2 38.58 20.69 40.02 21.46 39.58" fill="url(#hg)"/><polygon points="20.69 40.02 20.69 40.9 18.2 39.47 18.2 38.58 20.69 40.02" fill="url(#hh)"/><polygon points="21.46 39.58 21.46 40.46 20.69 40.9 20.69 40.02 21.46 39.58" fill="url(#hi)"/></g><g><polygon points="20.69 40.91 18.2 39.48 17.44 39.92 19.92 41.35 20.69 40.91" fill="url(#hj)"/><polygon points="19.92 41.35 19.92 42.24 17.44 40.8 17.44 39.92 19.92 41.35" fill="url(#hk)"/><polygon points="20.69 40.91 20.69 41.8 19.92 42.24 19.92 41.35 20.69 40.91" fill="url(#hl)"/></g><g><polygon points="19.92 42.25 17.44 40.81 16.67 41.25 19.16 42.69 19.92 42.25" fill="url(#hm)"/><polygon points="19.16 42.69 19.16 43.57 16.67 42.14 16.67 41.25 19.16 42.69" fill="url(#hn)"/><polygon points="19.92 42.25 19.92 43.13 19.16 43.57 19.16 42.69 19.92 42.25" fill="url(#ho)"/></g><g><polygon points="19.16 43.58 16.67 42.15 15.91 42.59 18.39 44.02 19.16 43.58" fill="url(#hp)"/><polygon points="18.39 44.02 18.39 44.91 15.91 43.47 15.91 42.59 18.39 44.02" fill="url(#hq)"/><polygon points="19.16 43.58 19.16 44.47 18.39 44.91 18.39 44.02 19.16 43.58" fill="url(#hr)"/></g><g><polygon points="18.39 44.92 15.91 43.48 15.14 43.92 17.63 45.36 18.39 44.92" fill="url(#hs)"/><polygon points="17.63 45.36 17.63 46.24 15.14 44.81 15.14 43.92 17.63 45.36" fill="url(#ht)"/><polygon points="18.39 44.92 18.39 45.8 17.63 46.24 17.63 45.36 18.39 44.92" fill="url(#hu)"/></g><g><polygon points="17.63 46.25 15.14 44.82 14.37 45.26 16.86 46.69 17.63 46.25" fill="url(#hv)"/><polygon points="16.86 46.69 16.86 47.58 14.37 46.14 14.37 45.26 16.86 46.69" fill="url(#hw)"/><polygon points="17.63 46.25 17.63 47.14 16.86 47.58 16.86 46.69 17.63 46.25" fill="url(#hx)"/></g></g><g><path d="m27.22,27.8v4.27s.22.21.52.1l.18-2.36.18.41.56,1.16s.39.16.54-.01l-.61-1.45v-2.12h-1.38Z" fill="#442d89"/><polygon points="27.36 25.11 27.36 26.06 26.42 26.52 25.56 25.55 25.83 25.07 26.65 25.69 27.36 25.11" fill="#e8e4e4"/><polygon points="27.63 23.6 27.49 24.17 27.74 24.55 28.04 24.55 28.09 24.67 28.39 24.54 28.36 24.37 28.32 23.9 28.09 23.48 27.84 23.41 27.63 23.6" fill="#e4c688"/><polygon points="27.63 23.58 27.7 23.65 28.17 23.89 28.28 24.15 28.02 24.31 28.2 24.45 28.7 24.16 28.76 23.66 28.39 23.24 27.81 23.15 27.63 23.58" fill="#3a2838"/><path d="m27.23,32.11s-.56.19-.56.19l.05.18,1.05.07v-.4l-.54-.04Z" fill="#15131d"/><polygon points="28.69 31.36 28.22 31.63 28.6 31.82 29.23 31.69 29.41 31.36 28.69 31.36" fill="#15131d"/><path d="m27.1,27.8v-1.24l.23-.56.04-.88.58-.57s.13.12.49,0l.33.62v2.63h-1.66Z" fill="url(#hy)"/><polygon points="25.83 25.07 25.55 24.7 25.43 24.74 25.42 24.96 25.17 24.95 25.16 25.3 25.56 25.55 25.83 25.07" fill="#e4c688"/></g></g><g mask="url(#hz)"><g><polygon points="3.25 37.14 0 39.01 3.25 40.89 6.5 39.01 3.25 37.14" fill="#a7dde7"/><polygon points="0 39.01 0 47.45 3.25 49.33 3.25 40.89 0 39.01" fill="url(#ib)"/><polygon points="6.5 39.01 6.5 47.45 3.25 49.33 3.25 40.89 6.5 39.01" fill="#2f4298"/></g></g><g mask="url(#ic)"><g><polygon points="13.44 37.88 10.73 39.45 13.44 41.02 16.15 39.45 13.44 37.88" fill="url(#ie)"/><polygon points="10.73 39.45 10.73 52.61 13.44 54.18 13.44 41.02 10.73 39.45" fill="url(#if)"/><polygon points="16.15 39.45 16.15 52.61 13.44 54.18 13.44 41.02 16.15 39.45" fill="url(#ig)"/></g></g><g mask="url(#ih)"><g><polygon points="45.06 32.75 41.81 34.63 45.06 36.5 48.31 34.63 45.06 32.75" fill="url(#ij)"/><polygon points="41.81 34.63 41.81 50.38 45.06 52.25 45.06 36.5 41.81 34.63" fill="url(#ik)"/><polygon points="48.31 34.63 48.31 50.38 45.06 52.25 45.06 36.5 48.31 34.63" fill="url(#il)"/></g></g><g mask="url(#im)"><g><polygon points="23.22 45.58 19.97 47.46 23.22 49.33 26.47 47.46 23.22 45.58" fill="#a7dde7"/><polygon points="19.97 47.46 19.97 60.9 23.22 62.78 23.22 49.33 19.97 47.46" fill="url(#io)"/><polygon points="26.47 47.46 26.47 60.9 23.22 62.78 23.22 49.33 26.47 47.46" fill="#2f4298"/></g></g></svg>